<svg width="126" height="40" viewBox="0 0 126 40" fill="none" xmlns="http://www.w3.org/2000/svg">
<path d="M8.09167 40H7.12279C6.45333 39.9911 5.78543 39.9341 5.12447 39.8296C4.51093 39.7262 3.91653 39.534 3.36081 39.2593C2.80038 38.9864 2.28907 38.6262 1.84693 38.1926C1.40334 37.7603 1.03514 37.2599 0.756939 36.7111C0.474201 36.1661 0.280108 35.5813 0.181665 34.9778C0.0687164 34.3341 0.00797187 33.6827 0 33.0296C0 32.8074 0 32.0741 0 32.0741V7.91852C0 7.91852 0 7.17778 0 6.97778C0.0138594 6.32226 0.0771092 5.66863 0.189235 5.02222C0.290117 4.41785 0.481404 3.83131 0.756939 3.28148C1.03433 2.73411 1.3998 2.2339 1.83936 1.8C2.2852 1.37269 2.79585 1.01538 3.35324 0.740741C3.91287 0.472186 4.50958 0.285027 5.12447 0.185185C5.78752 0.0750959 6.45798 0.0131983 7.13036 0L8.09167 0H117.908H118.885C119.549 0.00860932 120.212 0.0655564 120.868 0.17037C121.478 0.277599 122.069 0.469667 122.624 0.740741C123.454 1.15616 124.173 1.75794 124.72 2.49691C125.267 3.23587 125.628 4.09106 125.773 4.99259C125.885 5.64652 125.948 6.30751 125.962 6.97037V7.9037C125.962 8.28889 125.962 8.64444 125.962 9.04444V30.9407C125.962 31.3185 125.962 31.6815 125.962 32.0667V33.037C125.947 33.6873 125.886 34.3357 125.78 34.9778C125.677 35.5859 125.481 36.1752 125.198 36.7259C124.626 37.8093 123.728 38.694 122.624 39.2593C122.063 39.534 121.464 39.7262 120.845 39.8296C120.182 39.9351 119.511 39.9921 118.839 40H117.878H8.09167Z" fill="white"/>
<path d="M25.3196 20.1482C25.3351 19.2827 25.5718 18.4347 26.0081 17.6817C26.4445 16.9287 27.0665 16.2945 27.8175 15.8371C27.3382 15.1711 26.7069 14.6236 25.9738 14.2379C25.2406 13.8521 24.4258 13.6388 23.5938 13.6149C21.8074 13.4371 20.0891 14.6593 19.1808 14.6593C18.2725 14.6593 16.857 13.6371 15.3583 13.6667C14.3836 13.6924 13.4324 13.9653 12.5978 14.4587C11.7632 14.9521 11.0738 15.6491 10.5971 16.4815C8.55339 19.9482 10.0824 25.0519 12.0429 27.8593C13.0269 29.2371 14.1699 30.7704 15.6762 30.7186C17.1825 30.6667 17.6972 29.8 19.4609 29.8C21.2245 29.8 21.7317 30.7186 23.2456 30.6815C24.7594 30.6445 25.8116 29.3037 26.7653 27.9112C27.4716 26.9326 28.0134 25.8498 28.37 24.7037C27.4631 24.3181 26.6912 23.6814 26.1492 22.8721C25.6072 22.0627 25.3188 21.1159 25.3196 20.1482ZM22.4281 11.7556C23.287 10.7497 23.7107 9.4553 23.6089 8.14819C22.2958 8.2888 21.0837 8.90434 20.2102 9.87412C19.3545 10.8248 18.919 12.0689 18.9991 13.3334C19.6554 13.3414 20.305 13.2036 20.899 12.9303C21.4929 12.657 22.0158 12.2553 22.4281 11.7556Z" fill="#222A30"/>
<path d="M43.9025 27.2371H38.884L37.6805 30.7186H35.5762L40.3222 17.8371H42.5324L47.286 30.7186H45.106L43.9025 27.2371ZM39.4063 25.6297H43.3802L41.4197 20.0001H41.3668L39.4063 25.6297ZM57.5274 26.0223C57.5274 28.9408 55.9302 30.8149 53.5232 30.8149C52.9114 30.8483 52.3024 30.7116 51.7666 30.4206C51.2309 30.1296 50.7901 29.6962 50.4954 29.1705H50.45V33.8223H48.482V21.326H50.3895V22.889C50.6965 22.3728 51.1393 21.9466 51.6718 21.6548C52.2043 21.363 52.807 21.2162 53.4172 21.2297C55.9227 21.2297 57.5274 23.1112 57.5274 26.0223ZM55.5064 26.0223C55.5064 24.126 54.4996 22.8742 52.9706 22.8742C51.4416 22.8742 50.45 24.1482 50.45 26.0223C50.45 27.8964 51.4719 29.1853 52.9858 29.1853C54.4996 29.1853 55.5064 27.9408 55.5064 26.0223ZM68.0867 26.0223C68.0867 28.9408 66.4895 30.8149 64.0825 30.8149C63.4707 30.8483 62.8617 30.7116 62.3259 30.4206C61.7901 30.1296 61.3494 29.6962 61.0547 29.1705H61.0093V33.8223H59.0413V21.326H60.9487V22.889C61.2558 22.3728 61.6986 21.9466 62.2311 21.6548C62.7636 21.363 63.3663 21.2162 63.9765 21.2297C66.482 21.2297 68.1245 23.1112 68.1245 26.0223H68.0867ZM66.0657 26.0223C66.0657 24.126 65.0589 22.8742 63.5299 22.8742C62.0009 22.8742 61.0093 24.1482 61.0093 26.0223C61.0093 27.8964 62.0236 29.1853 63.5299 29.1853C65.0362 29.1853 66.0657 27.9408 66.0657 26.0223ZM75.0657 27.1334C75.217 28.4075 76.4811 29.2445 78.2145 29.2445C79.9479 29.2445 81.0682 28.4075 81.0682 27.2593C81.0682 26.2593 80.3491 25.6594 78.6384 25.2445L76.9353 24.8445C74.5207 24.2742 73.4231 23.1705 73.4231 21.3705C73.4231 19.1482 75.3987 17.6223 78.2069 17.6223C81.0152 17.6223 82.9 19.1482 82.9605 21.3705H80.9698C80.8562 20.089 79.7662 19.3112 78.1842 19.3112C76.6022 19.3112 75.5122 20.0964 75.5122 21.2371C75.5122 22.1482 76.2011 22.7186 77.8966 23.0964L79.3499 23.4445C82.0522 24.0668 83.1346 25.1334 83.1346 27.0149C83.1346 29.4223 81.1741 30.9334 78.0556 30.9334C75.1338 30.9334 73.1657 29.4519 73.0371 27.1334H75.0657ZM87.3962 19.1038V21.326H89.2204V22.8519H87.3962V28.0371C87.3962 28.8445 87.7671 29.2149 88.5619 29.2149C88.7797 29.2151 88.9972 29.2003 89.2128 29.1705V30.689C88.8536 30.7553 88.4883 30.7851 88.1228 30.7779C86.1775 30.7779 85.4206 30.0371 85.4206 28.2445V22.8519H84.0202V21.326H85.413V19.1038H87.3962ZM90.2801 26.0223C90.2801 23.0594 92.0589 21.2149 94.8217 21.2149C97.5846 21.2149 99.3634 23.0668 99.3634 26.0223C99.3634 28.9779 97.6073 30.8371 94.8217 30.8371C92.0362 30.8371 90.2801 28.9853 90.2801 26.0223ZM97.3726 26.0223C97.3726 24.0001 96.4265 22.8001 94.8293 22.8001C93.2322 22.8001 92.286 24.0075 92.286 26.0223C92.286 28.0371 93.2322 29.2445 94.8293 29.2445C96.4265 29.2445 97.3726 28.0594 97.3726 26.0223ZM101.006 21.326H102.883V22.9631H102.944C103.059 22.4618 103.348 22.0151 103.762 21.6991C104.176 21.383 104.69 21.2172 105.215 21.2297C105.441 21.2283 105.667 21.2532 105.888 21.3038V23.1038C105.601 23.0187 105.302 22.9811 105.003 22.9927C104.712 22.9781 104.422 23.0263 104.153 23.1339C103.884 23.2416 103.643 23.4059 103.446 23.6153C103.25 23.8247 103.103 24.074 103.016 24.3454C102.929 24.6167 102.904 24.9035 102.944 25.1853V30.7556H100.976L101.006 21.326ZM114.994 27.9927C114.729 29.6964 113.026 30.8668 110.861 30.8668C108.068 30.8668 106.32 29.0371 106.32 26.0964C106.32 23.1556 108.061 21.2445 110.763 21.2445C113.465 21.2445 115.085 23.0297 115.085 25.8742V26.5334H108.31V26.6519C108.284 26.993 108.332 27.3357 108.45 27.6575C108.569 27.9792 108.756 28.2727 108.999 28.5186C109.246 28.7661 109.544 28.9599 109.872 29.0875C110.201 29.2152 110.553 29.2737 110.907 29.2593C111.372 29.3012 111.839 29.1956 112.238 28.9582C112.637 28.7208 112.948 28.3642 113.125 27.9408L114.994 27.9927ZM108.333 25.1853H113.132C113.155 24.8736 113.11 24.5609 113.001 24.2673C112.891 23.9738 112.72 23.7061 112.498 23.4817C112.276 23.2573 112.008 23.0813 111.711 22.9652C111.415 22.849 111.097 22.7953 110.778 22.8075C110.457 22.8045 110.138 22.8639 109.841 22.9821C109.543 23.1004 109.273 23.2752 109.045 23.4964C108.591 23.9465 108.335 24.5529 108.333 25.1853Z" fill="#222A30"/>
<path d="M39.1566 8.14818C39.5756 8.11306 39.9973 8.17074 40.3904 8.31693C40.7835 8.46311 41.1379 8.69406 41.4274 8.99263C41.7113 9.28673 41.9262 9.63799 42.0569 10.0218C42.1877 10.4057 42.2311 10.8128 42.1843 11.2148C42.1843 13.1926 41.0867 14.326 39.202 14.326H36.9312V8.14818H39.1566ZM37.847 13.4593H39.043C39.3373 13.4754 39.6315 13.4273 39.9045 13.3186C40.1775 13.2099 40.4224 13.0432 40.6216 12.8306C40.8207 12.618 40.9692 12.3647 41.0561 12.0892C41.1431 11.8136 41.1665 11.5226 41.1246 11.2371C41.1679 10.9513 41.1456 10.6598 41.0591 10.3836C40.9727 10.1074 40.8243 9.85356 40.6248 9.64063C40.4254 9.4277 40.1799 9.26102 39.9062 9.15276C39.6325 9.0445 39.3376 8.99738 39.043 9.01485H37.847V13.4593ZM43.2364 11.9778C43.2003 11.5685 43.2808 11.1575 43.469 10.7903C43.6572 10.4231 43.9458 10.1141 44.3026 9.8977C44.6594 9.68129 45.0705 9.5659 45.4903 9.56435C45.9101 9.5628 46.3221 9.67515 46.6805 9.88892C47.0376 10.1068 47.3258 10.4175 47.5129 10.7864C47.7 11.1552 47.7787 11.5677 47.7402 11.9778C47.7818 12.2912 47.7547 12.6096 47.6605 12.9119C47.5664 13.2142 47.4075 13.4933 47.1944 13.7307C46.9812 13.9681 46.7188 14.1583 46.4246 14.2886C46.1305 14.4189 45.8113 14.4863 45.4883 14.4863C45.1654 14.4863 44.8462 14.4189 44.552 14.2886C44.2579 14.1583 43.9955 13.9681 43.7823 13.7307C43.5692 13.4933 43.4103 13.2142 43.3162 12.9119C43.222 12.6096 43.1948 12.2912 43.2364 11.9778ZM46.7714 11.9778C46.7714 10.963 46.3021 10.3704 45.4921 10.3704C44.6822 10.3704 44.2129 10.963 44.2129 11.9778C44.2129 12.9926 44.6671 13.5852 45.4921 13.5852C46.3172 13.5852 46.7714 12.9926 46.7714 11.9778Z" fill="#222A30"/>
<path d="M53.7275 14.3334H52.7511L51.7671 10.8964H51.6914L50.7073 14.3334H49.7385L48.429 9.66675H49.3827L50.238 13.2297H50.3062L51.2826 9.66675H52.1909L53.175 13.2297H53.2431L54.0984 9.66675H55.037L53.7275 14.3334Z" fill="#222A30"/>
<path d="M56.1423 9.66683H57.0507V10.4076H57.1188C57.2378 10.1412 57.439 9.91804 57.6942 9.76926C57.9494 9.62048 58.2458 9.55358 58.5418 9.57794C58.7759 9.55244 59.0129 9.58075 59.2338 9.66062C59.4548 9.74048 59.6537 9.86971 59.8146 10.038C59.9756 10.2063 60.0942 10.409 60.161 10.6301C60.2278 10.8511 60.241 11.0844 60.1995 11.3113V14.3335H59.2533V11.5409C59.2533 10.8002 58.9203 10.4224 58.2239 10.4224C58.0664 10.4146 57.909 10.4404 57.7626 10.4979C57.6163 10.5555 57.4844 10.6434 57.3761 10.7557C57.2676 10.867 57.1855 11.0005 57.1358 11.1465C57.0861 11.2924 57.0699 11.4474 57.0885 11.6002V14.3335H56.1423V9.66683Z" fill="#222A30"/>
<path d="M61.6982 7.84497H62.6368V14.3339H61.6982V7.84497Z" fill="#222A30"/>
<path d="M63.9463 12C63.9463 11.4107 64.1855 10.8454 64.6114 10.4287C65.0373 10.0119 65.6148 9.77782 66.2171 9.77782C66.8194 9.77782 67.397 10.0119 67.8228 10.4287C68.2487 10.8454 68.4879 11.4107 68.4879 12C68.4879 12.5894 68.2487 13.1546 67.8228 13.5714C67.397 13.9881 66.8194 14.2223 66.2171 14.2223C65.6148 14.2223 65.0373 13.9881 64.6114 13.5714C64.1855 13.1546 63.9463 12.5894 63.9463 12ZM67.4812 12C67.4812 10.9852 67.0195 10.3926 66.202 10.3926C65.3845 10.3926 64.9227 10.9852 64.9227 12C64.9227 13.0149 65.3845 13.6075 66.202 13.6075C67.0195 13.6075 67.4812 13.0149 67.4812 12ZM69.4417 13.0149C69.4417 12.1704 70.0775 11.6889 71.2129 11.6223L72.5073 11.5482V11.1112C72.5073 10.6223 72.1742 10.3704 71.5308 10.3704C71.0085 10.3704 70.6376 10.563 70.5392 10.8889H69.6385C69.7369 10.0889 70.5089 9.57782 71.5914 9.57782C72.6738 9.57782 73.4232 10.1556 73.4232 11.1112V14.3037H72.5148V13.6519H72.4391C72.288 13.8873 72.0762 14.0796 71.8251 14.2097C71.574 14.3397 71.2924 14.4028 71.0085 14.3926C70.8143 14.4136 70.6178 14.3962 70.4305 14.3415C70.2433 14.2868 70.0692 14.1958 69.9185 14.0741C69.7665 13.941 69.6452 13.7777 69.563 13.595C69.4807 13.4123 69.4394 13.2145 69.4417 13.0149ZM72.5073 12.5926V12.2223L71.3416 12.2963C70.683 12.3408 70.3878 12.563 70.3878 12.9704C70.3878 13.3778 70.7587 13.6371 71.2735 13.6371C71.4257 13.6535 71.5797 13.639 71.7259 13.5944C71.8721 13.5499 72.0074 13.4763 72.1232 13.3783C72.239 13.2802 72.3329 13.1598 72.399 13.0247C72.4651 12.8895 72.5019 12.7424 72.5073 12.5926ZM74.6872 11.9778C74.6872 10.4963 75.4442 9.56301 76.6629 9.56301C76.9617 9.55174 77.2579 9.62285 77.5175 9.76821C77.7771 9.91358 77.9898 10.1274 78.1313 10.3852H78.1994V7.84449H79.1381V14.3334H78.2373V13.5926H78.1616C78.0102 13.8515 77.7888 14.0646 77.5217 14.2083C77.2546 14.3521 76.9522 14.421 76.6477 14.4075C75.4518 14.4149 74.6872 13.4741 74.6872 12V11.9778ZM75.6561 11.9778C75.6561 12.963 76.133 13.563 76.9278 13.563C77.7226 13.563 78.2146 12.9556 78.2146 11.9778C78.2146 11 77.7226 10.3926 76.9278 10.3926C76.133 10.3926 75.694 11.0149 75.694 12L75.6561 11.9778ZM83.0363 11.9778C83.0002 11.5685 83.0807 11.1575 83.2689 10.7903C83.4571 10.4231 83.7456 10.1141 84.1024 9.89771C84.4592 9.6813 84.8703 9.56591 85.2901 9.56436C85.7099 9.56281 86.1219 9.67516 86.4804 9.88893C86.8374 10.1068 87.1256 10.4176 87.3127 10.7864C87.4998 11.1553 87.5786 11.5677 87.5401 11.9778C87.5401 12.5672 87.3008 13.1324 86.875 13.5492C86.4491 13.9659 85.8715 14.2 85.2693 14.2C84.667 14.2 84.0894 13.9659 83.6635 13.5492C83.2377 13.1324 82.9984 12.5672 82.9984 11.9778H83.0363ZM86.5712 11.9778C86.5712 10.963 86.1019 10.3704 85.2844 10.3704C84.4669 10.3704 84.0052 10.963 84.0052 11.9778C84.0052 12.9926 84.4669 13.5852 85.2844 13.5852C86.1019 13.5852 86.5712 13.0149 86.5712 12V11.9778ZM88.8042 9.64449H89.7049V10.3852H89.7806C89.8978 10.1175 90.0986 9.893 90.3543 9.74395C90.6099 9.59489 90.9073 9.52895 91.2037 9.5556C91.4372 9.53135 91.6732 9.56059 91.8932 9.64101C92.1132 9.72142 92.311 9.85082 92.4711 10.019C92.6312 10.1871 92.7491 10.3894 92.8155 10.6098C92.8819 10.8302 92.895 11.0627 92.8538 11.2889V14.3112H91.9076V11.5408C91.9076 10.8 91.5746 10.4223 90.8782 10.4223C90.7208 10.4137 90.5635 10.4389 90.4172 10.496C90.2708 10.5531 90.139 10.6409 90.0308 10.753C89.9227 10.8652 89.8409 10.9991 89.7912 11.1454C89.7414 11.2917 89.7249 11.4468 89.7428 11.6V14.3334H88.8042V9.64449ZM98.1751 8.48152V9.66671H99.2045V10.4075H98.1751V12.8149C98.1751 13.3037 98.3794 13.5186 98.8487 13.5186C98.9672 13.5262 99.086 13.5262 99.2045 13.5186V14.2593C99.0369 14.288 98.8674 14.3053 98.6973 14.3112C97.6452 14.3112 97.2289 13.9482 97.2289 13.0445V10.4593H96.4719V9.71856H97.2289V8.53338L98.1751 8.48152ZM100.491 7.82227H101.43V10.3926H101.506C101.633 10.1306 101.839 9.91244 102.096 9.76699C102.352 9.62154 102.648 9.55559 102.944 9.57782C103.175 9.56608 103.405 9.6042 103.619 9.68948C103.833 9.77475 104.025 9.90509 104.182 10.0712C104.339 10.2374 104.456 10.4353 104.526 10.6508C104.596 10.8664 104.617 11.0944 104.586 11.3186V14.3334H103.64V11.5482C103.64 10.8075 103.284 10.4223 102.626 10.4223C102.463 10.4096 102.3 10.4316 102.147 10.4865C101.994 10.5415 101.856 10.6283 101.74 10.7408C101.625 10.8534 101.537 10.9895 101.482 11.1394C101.427 11.2892 101.407 11.449 101.422 11.6075V14.3334H100.476L100.491 7.82227ZM110.089 13.0519C109.962 13.4786 109.685 13.8478 109.307 14.0944C108.929 14.341 108.474 14.4492 108.023 14.4C107.709 14.4083 107.397 14.3496 107.108 14.2279C106.819 14.1062 106.561 13.9245 106.352 13.6955C106.142 13.4664 105.986 13.1954 105.894 12.9014C105.802 12.6073 105.777 12.2972 105.82 11.9926C105.778 11.6867 105.803 11.3753 105.895 11.0798C105.986 10.7844 106.142 10.5117 106.351 10.2804C106.56 10.0491 106.818 9.86461 107.106 9.73954C107.395 9.61446 107.707 9.55173 108.023 9.5556C109.347 9.5556 110.15 10.4371 110.15 11.9037V12.2297H106.781V12.2815C106.766 12.4524 106.788 12.6245 106.846 12.7866C106.903 12.9487 106.995 13.0971 107.115 13.2223C107.233 13.3495 107.378 13.4503 107.54 13.518C107.702 13.5857 107.877 13.6187 108.053 13.6149C108.278 13.6428 108.507 13.6041 108.709 13.5037C108.911 13.4034 109.078 13.246 109.189 13.0519H110.089ZM106.781 11.5704H109.189C109.2 11.414 109.178 11.257 109.125 11.1091C109.071 10.9613 108.987 10.8258 108.878 10.7112C108.765 10.6008 108.63 10.5138 108.482 10.4553C108.334 10.3968 108.175 10.3679 108.015 10.3704C107.852 10.3699 107.691 10.4011 107.54 10.4622C107.389 10.5232 107.252 10.6128 107.137 10.726C107.021 10.8374 106.929 10.9713 106.867 11.1192C106.806 11.267 106.777 11.4257 106.781 11.5852V11.5704Z" fill="#222A30"/>
</svg>
