<svg width="137" height="40" viewBox="0 0 137 40" fill="none" xmlns="http://www.w3.org/2000/svg">
    <g clip-path="url(#clip0)">
        <path d="M6.65767 0.402304H130.342C131.21 0.395468 132.07 0.559805 132.874 0.88593C133.678 1.21205 134.41 1.69358 135.029 2.30301C135.647 2.91245 136.139 3.63785 136.477 4.4378C136.816 5.23776 136.993 6.09659 137 6.96527V33.8393C136.993 34.708 136.816 35.5669 136.477 36.3668C136.139 37.1668 135.647 37.8922 135.029 38.5016C134.41 39.111 133.678 39.5926 132.874 39.9187C132.07 40.2448 131.21 40.4091 130.342 40.4023H6.65767C5.79016 40.4091 4.92981 40.2448 4.12573 39.9187C3.32165 39.5926 2.5896 39.111 1.97138 38.5016C1.35315 37.8922 0.860855 37.1668 0.522605 36.3668C0.184355 35.5669 0.0067735 34.708 0 33.8393L0 6.96527C0.0067735 6.09659 0.184355 5.23776 0.522605 4.4378C0.860855 3.63785 1.35315 2.91245 1.97138 2.30301C2.5896 1.69358 3.32165 1.21205 4.12573 0.88593C4.92981 0.559805 5.79016 0.395468 6.65767 0.402304Z" fill="white"/>
        <path d="M48.1202 10.4073C48.1416 10.7782 48.087 11.1496 47.9598 11.4986C47.8326 11.8477 47.6354 12.167 47.3805 12.4369C47.0891 12.7376 46.7373 12.9729 46.3484 13.1274C45.9595 13.2819 45.5423 13.3521 45.1243 13.3332C44.4979 13.3232 43.8883 13.1291 43.3712 12.775C42.8541 12.4209 42.4523 11.9224 42.2159 11.3415C41.9794 10.7606 41.9187 10.1229 42.0412 9.50774C42.1637 8.89255 42.4641 8.327 42.9051 7.88138C43.1938 7.58612 43.5394 7.35251 43.9208 7.19464C44.3022 7.03677 44.7116 6.95793 45.1243 6.96286C45.5511 6.96404 45.9734 7.04963 46.3671 7.21472C46.7343 7.36345 47.0613 7.59695 47.3213 7.8962L46.7813 8.43694C46.5827 8.19168 46.3292 7.99678 46.0413 7.86808C45.7534 7.73937 45.4392 7.68048 45.1243 7.6962C44.8072 7.69401 44.4929 7.75606 44.2003 7.87861C43.9077 8.00116 43.6429 8.18168 43.4218 8.40932C43.2007 8.63697 43.0278 8.90703 42.9136 9.20329C42.7994 9.49954 42.7461 9.81586 42.7571 10.1332C42.7479 10.6083 42.8801 11.0753 43.1369 11.4748C43.3937 11.8743 43.7634 12.1882 44.199 12.3765C44.6346 12.5648 45.1164 12.619 45.5828 12.5321C46.0493 12.4453 46.4794 12.2213 46.8183 11.8888C47.1296 11.5606 47.3156 11.1331 47.3435 10.6814H45.1243V9.94064H48.0833C48.1072 10.0951 48.1196 10.251 48.1202 10.4073Z" fill="#222A30"/>
        <path d="M52.7656 7.86664H50.0286V9.79257H52.5289V10.5259H50.0286V12.4592H52.7656V13.2074H49.2148V7.11108H52.7656V7.86664Z" fill="#222A30"/>
        <path d="M56.0947 13.2074H55.3179V7.86664H53.6091V7.11108H57.8404V7.86664H56.0947V13.2074Z" fill="#222A30"/>
        <path d="M60.8289 13.2074V7.11108H61.6056V13.2074H60.8289Z" fill="#222A30"/>
        <path d="M65.0749 13.2074H64.2982V7.86664H62.5894V7.11108H66.7763V7.86664H65.0749V13.2074Z" fill="#222A30"/>
        <path d="M74.7138 12.4148C74.1208 12.9957 73.3242 13.321 72.4946 13.321C71.665 13.321 70.8684 12.9957 70.2754 12.4148C69.7022 11.8025 69.3833 10.9947 69.3833 10.1555C69.3833 9.3163 69.7022 8.50855 70.2754 7.89625C70.8646 7.30821 71.6627 6.97803 72.4946 6.97803C73.3265 6.97803 74.1245 7.30821 74.7138 7.89625C75.2936 8.50517 75.617 9.31419 75.617 10.1555C75.617 10.9968 75.2936 11.8059 74.7138 12.4148ZM70.8302 11.9111C71.2695 12.3485 71.8639 12.594 72.4835 12.594C73.1031 12.594 73.6974 12.3485 74.1368 11.9111C74.5693 11.4318 74.8087 10.8089 74.8087 10.1629C74.8087 9.51698 74.5693 8.89403 74.1368 8.41477C73.6974 7.97736 73.1031 7.73183 72.4835 7.73183C71.8639 7.73183 71.2695 7.97736 70.8302 8.41477C70.3925 8.89063 70.1484 9.51314 70.1456 10.16C70.1429 10.8069 70.3818 11.4315 70.8154 11.9111H70.8302Z" fill="#222A30"/>
        <path d="M76.6963 13.2074V7.11108H77.6506L80.6169 11.8592V10.6815V7.11108H81.3936V13.2074H80.5873L77.4878 8.24442V9.4222V13.2074H76.6963Z" fill="#222A30"/>
        <path d="M69.1509 22.1036C68.2985 22.1066 67.4662 22.3623 66.7589 22.8386C66.0516 23.3149 65.5012 23.9904 65.177 24.7798C64.8529 25.5691 64.7696 26.437 64.9377 27.2737C65.1057 28.1104 65.5176 28.8785 66.1214 29.481C66.7251 30.0835 67.4935 30.4933 68.3297 30.6587C69.1659 30.8242 70.0323 30.7378 70.8195 30.4105C71.6066 30.0832 72.2793 29.5297 72.7525 28.8199C73.2258 28.11 73.4783 27.2756 73.4784 26.4222C73.4874 25.8513 73.3815 25.2844 73.1671 24.7554C72.9526 24.2264 72.6339 23.7461 72.2301 23.343C71.8262 22.94 71.3454 22.6226 70.8164 22.4096C70.2874 22.1967 69.7209 22.0926 69.1509 22.1036ZM69.1509 29.0444C68.6266 29.0815 68.1034 28.9599 67.6491 28.6953C67.1949 28.4307 66.8306 28.0353 66.6038 27.5606C66.3769 27.0859 66.298 26.5539 66.3772 26.0336C66.4563 25.5134 66.69 25.029 67.0478 24.6436C67.4055 24.2581 67.8708 23.9893 68.3832 23.8722C68.8955 23.7551 69.4312 23.7951 69.9206 23.9869C70.41 24.1788 70.8304 24.5136 71.1271 24.9479C71.4239 25.3822 71.5833 25.8959 71.5846 26.4222C71.6005 26.7552 71.5498 27.0882 71.4354 27.4013C71.321 27.7145 71.1453 28.0017 70.9186 28.2459C70.6919 28.4902 70.4188 28.6866 70.1152 28.8238C69.8116 28.9609 69.4838 29.0359 69.1509 29.0444ZM59.697 22.1036C58.7179 22.1227 57.7755 22.48 57.0293 23.1151C56.2832 23.7502 55.7792 24.624 55.6027 25.5886C55.4263 26.5531 55.5882 27.5491 56.0611 28.4078C56.534 29.2665 57.2887 29.9352 58.1975 30.3005C59.1063 30.6658 60.1132 30.7053 61.0478 30.4124C61.9824 30.1195 62.7871 29.5121 63.3257 28.6931C63.8642 27.8741 64.1035 26.8939 64.0031 25.9184C63.9026 24.943 63.4685 24.0323 62.7743 23.3407C62.3691 22.9381 61.8872 22.6211 61.3573 22.4086C60.8274 22.1961 60.2603 22.0924 59.6896 22.1036H59.697ZM59.697 29.0444C59.1725 29.0825 58.6487 28.9616 58.1937 28.6975C57.7388 28.4333 57.3738 28.0381 57.1463 27.5634C56.9189 27.0886 56.8394 26.5562 56.9183 26.0356C56.9972 25.515 57.2308 25.0302 57.5887 24.6444C57.9456 24.2544 58.4118 23.9816 58.9263 23.8618C59.4408 23.742 59.9794 23.7808 60.4714 23.9731C60.9635 24.1654 61.386 24.5022 61.6834 24.9392C61.9809 25.3763 62.1394 25.8932 62.1381 26.4222C62.154 26.7552 62.1033 27.0882 61.9889 27.4013C61.8745 27.7145 61.6988 28.0017 61.4721 28.2459C61.2454 28.4902 60.9723 28.6866 60.6687 28.8238C60.3651 28.9609 60.0373 29.0359 59.7044 29.0444H59.697ZM48.4455 23.4296V25.2592H52.8322C52.7598 26.1208 52.4033 26.9339 51.8187 27.5703C51.3778 28.0135 50.8494 28.3596 50.2673 28.5867C49.6852 28.8137 49.0622 28.9166 48.4381 28.8888C47.7825 28.9144 47.1284 28.8072 46.5151 28.5736C45.9018 28.34 45.3419 27.9848 44.869 27.5294C44.3961 27.0739 44.0198 26.5275 43.7628 25.9229C43.5058 25.3184 43.3734 24.6681 43.3734 24.011C43.3734 23.354 43.5058 22.7037 43.7628 22.0992C44.0198 21.4946 44.3961 20.9482 44.869 20.4927C45.3419 20.0373 45.9018 19.6821 46.5151 19.4485C47.1284 19.2149 47.7825 19.1077 48.4381 19.1333C49.0559 19.1221 49.6698 19.2342 50.2439 19.4631C50.818 19.692 51.3408 20.0332 51.7818 20.4666L53.0763 19.1777C52.4753 18.5686 51.7585 18.0864 50.9682 17.7594C50.1779 17.4324 49.3302 17.2674 48.4751 17.274C47.5685 17.2313 46.6627 17.3733 45.8124 17.6913C44.9622 18.0093 44.1852 18.4968 43.5285 19.1242C42.8719 19.7516 42.3491 20.5058 41.992 21.3414C41.6348 22.1769 41.4507 23.0763 41.4507 23.9851C41.4507 24.894 41.6348 25.7934 41.992 26.6289C42.3491 27.4644 42.8719 28.2187 43.5285 28.8461C44.1852 29.4734 44.9622 29.9609 45.8124 30.2789C46.6627 30.5969 47.5685 30.7389 48.4751 30.6962C49.3013 30.7456 50.1287 30.621 50.9038 30.3302C51.6789 30.0395 52.3845 29.5892 52.975 29.0084C53.5655 28.4276 54.0277 27.7292 54.3319 26.9584C54.636 26.1875 54.7753 25.3614 54.7407 24.5333C54.7396 24.1483 54.705 23.7641 54.6372 23.3851L48.4455 23.4296ZM94.4278 24.8518C94.1162 23.9324 93.4806 23.1583 92.6402 22.6743C91.7998 22.1902 90.812 22.0294 89.8617 22.2219C88.9114 22.4144 88.0637 22.947 87.4772 23.7201C86.8907 24.4932 86.6056 25.4538 86.6753 26.4222C86.6614 26.9894 86.7623 27.5535 86.9721 28.0806C87.1819 28.6077 87.4961 29.0867 87.8959 29.4888C88.3504 29.938 88.8982 30.2814 89.5002 30.4947C90.1022 30.708 90.7437 30.786 91.3792 30.723C92.0147 30.6601 92.6285 30.4578 93.1771 30.1306C93.7258 29.8034 94.1957 29.3592 94.5536 28.8296L93.0741 27.8147C92.8573 28.1762 92.5519 28.4761 92.1868 28.6862C91.8217 28.8962 91.409 29.0093 90.988 29.0147C90.5486 29.0284 90.1151 28.9111 89.7424 28.6777C89.3697 28.4442 89.0746 28.1052 88.8945 27.7036L94.6719 25.311L94.4278 24.8518ZM88.5099 26.3333C88.4734 25.699 88.6887 25.0759 89.1091 24.5999C89.3193 24.3653 89.5741 24.175 89.8586 24.0402C90.1431 23.9054 90.4516 23.8287 90.7661 23.8148C91.093 23.7943 91.4187 23.8704 91.7028 24.0337C91.9868 24.197 92.2167 24.4403 92.3639 24.7333L88.5099 26.3333ZM83.8199 30.5185H85.7211V17.7777H83.8199V30.5185ZM80.7204 23.111H80.6464C80.3683 22.7884 80.0259 22.5275 79.6412 22.3451C79.2565 22.1627 78.8379 22.0628 78.4124 22.0518C77.2986 22.098 76.2457 22.5735 75.4738 23.3791C74.702 24.1846 74.2711 25.2577 74.2711 26.374C74.2711 27.4903 74.702 28.5634 75.4738 29.369C76.2457 30.1745 77.2986 30.65 78.4124 30.6962C78.8418 30.7022 79.2674 30.6146 79.6596 30.4393C80.0517 30.2641 80.4011 30.0055 80.6834 29.6814H80.7426V30.3036C80.7426 31.9555 79.8623 32.8444 78.442 32.8444C77.9686 32.8334 77.5091 32.6818 77.1218 32.4088C76.7346 32.1358 76.4371 31.7537 76.2672 31.311L74.6176 31.9999C74.926 32.7539 75.4516 33.3989 76.1274 33.8527C76.8033 34.3065 77.5987 34.5486 78.4124 34.5481C80.6316 34.5481 82.4736 33.237 82.4736 30.0444V22.3555H80.7278L80.7204 23.111ZM78.5456 29.0888C77.8851 29.0391 77.2677 28.7412 76.8172 28.2549C76.3668 27.7687 76.1165 27.1299 76.1165 26.4666C76.1165 25.8033 76.3668 25.1645 76.8172 24.6783C77.2677 24.192 77.8851 23.8941 78.5456 23.8444C78.87 23.8612 79.1878 23.9429 79.4802 24.0846C79.7726 24.2264 80.0337 24.4253 80.2481 24.6697C80.4625 24.9141 80.6259 25.199 80.7286 25.5076C80.8313 25.8162 80.8713 26.1423 80.8462 26.4666C80.8753 26.7923 80.8378 27.1206 80.7361 27.4313C80.6343 27.7421 80.4704 28.0288 80.2544 28.274C80.0367 28.5171 79.7728 28.7144 79.4781 28.8543C79.1835 28.9942 78.8639 29.0739 78.5382 29.0888H78.5456ZM103.319 17.7777H98.7775V30.4814H100.679V25.6666H103.327C103.864 25.6996 104.402 25.6221 104.908 25.439C105.414 25.2559 105.878 24.971 106.27 24.6018C106.662 24.2327 106.974 23.787 107.187 23.2924C107.401 22.7978 107.511 22.2647 107.511 21.7259C107.511 21.187 107.401 20.6539 107.187 20.1593C106.974 19.6647 106.662 19.2191 106.27 18.8499C105.878 18.4807 105.414 18.1958 104.908 18.0127C104.402 17.8296 103.864 17.7521 103.327 17.7851L103.319 17.7777ZM103.319 23.874H100.671V19.5481H103.356C103.912 19.5805 104.435 19.8245 104.817 20.23C105.199 20.6356 105.412 21.172 105.412 21.7296C105.412 22.2871 105.199 22.8235 104.817 23.2291C104.435 23.6346 103.912 23.8786 103.356 23.911L103.319 23.874ZM115.015 22.0444C114.324 22.0017 113.635 22.1627 113.034 22.5076C112.433 22.8525 111.947 23.3662 111.634 23.9851L113.321 24.7259C113.486 24.4186 113.737 24.1661 114.043 23.9991C114.349 23.8321 114.697 23.7577 115.044 23.7851C115.286 23.7564 115.53 23.7761 115.764 23.8432C115.998 23.9102 116.215 24.0233 116.405 24.1758C116.594 24.3282 116.752 24.517 116.867 24.731C116.983 24.945 117.055 25.18 117.079 25.4222V25.5555C116.468 25.2318 115.787 25.0639 115.096 25.0666C113.284 25.0666 111.442 26.0814 111.442 27.9259C111.463 28.3172 111.562 28.7003 111.733 29.0531C111.903 29.4058 112.142 29.7212 112.435 29.9809C112.728 30.2406 113.07 30.4396 113.44 30.5662C113.811 30.6928 114.203 30.7445 114.593 30.7185C115.071 30.7512 115.549 30.6551 115.977 30.4402C116.405 30.2252 116.767 29.8992 117.027 29.4962H117.086V30.511H118.913V25.5999C118.913 23.3777 117.227 22.0814 115.067 22.0814L115.015 22.0444ZM114.785 29.0073C114.164 29.0073 113.306 28.6888 113.306 27.9259C113.306 26.911 114.386 26.5777 115.34 26.5777C115.942 26.564 116.536 26.7097 117.064 26.9999C117 27.5498 116.741 28.0583 116.333 28.4324C115.926 28.8065 115.397 29.0211 114.845 29.037L114.785 29.0073ZM125.571 22.3407L123.396 27.8518H123.337L121.118 22.3407H119.083L122.464 30.0444L120.533 34.3185H122.516L127.694 22.3407H125.571ZM108.512 30.4888H110.406V17.7777H108.512V30.4888Z" fill="#222A30"/>
        <path d="M10.5931 7.65912C10.2631 8.05679 10.0965 8.56522 10.127 9.08134V31.5628C10.0957 32.079 10.2624 32.5877 10.5931 32.985L10.667 33.0591L23.2426 20.4665V20.1702L10.667 7.57764L10.5931 7.65912Z" fill="url(#paint0_linear)"/>
        <path d="M27.3703 24.6741L23.2056 20.4741V20.1778L27.3703 15.9778L27.4591 16.0222L32.4449 18.8593C33.8652 19.6593 33.8652 20.9852 32.4449 21.8222L27.4813 24.6445L27.3703 24.6741Z" fill="url(#paint1_linear)"/>
        <path d="M27.5183 24.6148L23.2352 20.3259L10.593 32.9852C10.8841 33.2393 11.2543 33.3841 11.6402 33.3949C12.0262 33.4057 12.4039 33.2818 12.7087 33.0444L27.5035 24.6148" fill="url(#paint2_linear)"/>
        <path d="M27.5183 16.0371L12.7235 7.60003C12.4205 7.36185 12.0437 7.23739 11.6587 7.24821C11.2736 7.25903 10.9044 7.40447 10.6152 7.65929L23.2648 20.326L27.5183 16.0371Z" fill="url(#paint3_linear)"/>
        <path opacity="0.2" d="M27.3703 24.5186L12.6939 32.9037C12.4017 33.1237 12.046 33.2426 11.6804 33.2426C11.3149 33.2426 10.9592 33.1237 10.667 32.9037L10.593 32.9778L10.667 33.0445C10.9592 33.2644 11.3149 33.3834 11.6804 33.3834C12.046 33.3834 12.4017 33.2644 12.6939 33.0445L27.4887 24.6149L27.3703 24.5186Z" fill="black"/>
        <path opacity="0.12" d="M10.5931 32.8445C10.2632 32.4468 10.0966 31.9383 10.1271 31.4222V31.5704C10.0943 32.0868 10.2612 32.596 10.5931 32.9926L10.6671 32.9259L10.5931 32.8445ZM32.4747 21.6445L27.3705 24.5185L27.4592 24.6148L32.4451 21.7852C32.7306 21.6512 32.9751 21.4432 33.1533 21.1827C33.3315 20.9222 33.4369 20.6187 33.4585 20.3037C33.4071 20.5874 33.2918 20.8556 33.1213 21.0879C32.9508 21.3202 32.7297 21.5106 32.4747 21.6445Z" fill="black"/>
        <path opacity="0.25" d="M12.6939 7.74061L32.4746 18.9999C32.7334 19.1288 32.9592 19.3153 33.1349 19.5451C33.3106 19.775 33.4314 20.042 33.488 20.3258C33.4656 20.011 33.36 19.7079 33.1818 19.4475C33.0037 19.1871 32.7596 18.979 32.4746 18.8443L12.6939 7.59987C11.2736 6.79986 10.1196 7.46653 10.1196 9.08135V9.22949C10.1492 7.60727 11.281 6.94061 12.6939 7.74061Z" fill="white"/>
    </g>
    <defs>
        <linearGradient id="paint0_linear" x1="22.1994" y1="8.68445" x2="2.0404" y2="14.0352" gradientUnits="userSpaceOnUse">
            <stop stop-color="#00A0FF"/>
            <stop offset="0.01" stop-color="#00A1FF"/>
            <stop offset="0.26" stop-color="#00BEFF"/>
            <stop offset="0.51" stop-color="#00D2FF"/>
            <stop offset="0.76" stop-color="#00DFFF"/>
            <stop offset="1" stop-color="#00E3FF"/>
        </linearGradient>
        <linearGradient id="paint1_linear" x1="34.2582" y1="20.4973" x2="9.64789" y2="20.4973" gradientUnits="userSpaceOnUse">
            <stop stop-color="#FFE000"/>
            <stop offset="0.41" stop-color="#FFBD00"/>
            <stop offset="0.78" stop-color="#FFA500"/>
            <stop offset="1" stop-color="#FF9C00"/>
        </linearGradient>
        <linearGradient id="paint2_linear" x1="25.3871" y1="22.7019" x2="9.07462" y2="49.8547" gradientUnits="userSpaceOnUse">
            <stop stop-color="#FF3A44"/>
            <stop offset="1" stop-color="#C31162"/>
        </linearGradient>
        <linearGradient id="paint3_linear" x1="7.59265" y1="0.214475" x2="14.8428" y2="12.3804" gradientUnits="userSpaceOnUse">
            <stop stop-color="#32A071"/>
            <stop offset="0.07" stop-color="#2DA771"/>
            <stop offset="0.48" stop-color="#15CF74"/>
            <stop offset="0.8" stop-color="#06E775"/>
            <stop offset="1" stop-color="#00F076"/>
        </linearGradient>
        <clipPath id="clip0">
            <rect width="137" height="40" fill="white"/>
        </clipPath>
    </defs>
</svg>
