<svg width="137" height="40" fill="none" xmlns="http://www.w3.org/2000/svg"><g clip-path="url(#clip0)"><path d="M6.658.402h123.684a6.596 6.596 0 014.687 1.901A6.613 6.613 0 01137 6.965V33.84a6.613 6.613 0 01-6.658 6.563H6.658a6.6 6.6 0 01-6.135-4.035A6.622 6.622 0 010 33.839V6.965a6.623 6.623 0 011.971-4.662 6.605 6.605 0 014.687-1.9z" fill="#fff"/><path d="M48.12 10.407a2.728 2.728 0 01-.74 2.03 2.958 2.958 0 01-2.256.896 3.193 3.193 0 01-2.908-1.992 3.204 3.204 0 01.69-3.46 3.054 3.054 0 012.218-.918c.427.001.85.087 1.243.252.367.148.694.382.954.681l-.54.54a2.005 2.005 0 00-1.657-.74 2.35 2.35 0 00-2.21 1.507 2.358 2.358 0 00-.157.93 2.395 2.395 0 001.442 2.244 2.386 2.386 0 002.62-.488c.31-.328.497-.756.524-1.208h-2.219v-.74h2.96c.023.154.036.31.036.466zm4.646-2.54h-2.737v1.926h2.5v.733h-2.5v1.933h2.737v.748h-3.551V7.111h3.55v.756zm3.329 5.34h-.777v-5.34h-1.709V7.11h4.231v.756h-1.745v5.34zm4.734 0V7.111h.777v6.096h-.777zm4.246 0h-.777v-5.34H62.59V7.11h4.187v.756h-1.701v5.34zm9.639-.792a3.171 3.171 0 01-4.439 0 3.306 3.306 0 010-4.519 3.142 3.142 0 014.439 0 3.276 3.276 0 010 4.519zm-3.884-.504a2.343 2.343 0 003.307 0 2.61 2.61 0 000-3.496 2.343 2.343 0 00-3.307 0 2.595 2.595 0 00-.015 3.496h.015zm5.866 1.296V7.111h.955l2.966 4.748V7.111h.777v6.096h-.807l-3.1-4.963v4.963h-.79zm-7.546 8.897a4.31 4.31 0 00-3.973 2.676 4.324 4.324 0 00.944 4.701 4.31 4.31 0 007.357-3.059 4.26 4.26 0 00-1.248-3.079 4.248 4.248 0 00-3.08-1.24zm0 6.94a2.617 2.617 0 01-2.546-1.483 2.625 2.625 0 011.78-3.689 2.616 2.616 0 012.743 1.076c.297.434.456.948.458 1.474a2.505 2.505 0 01-2.434 2.622zm-9.453-6.94a4.243 4.243 0 00-4.094 3.485 4.257 4.257 0 002.594 4.712 4.241 4.241 0 005.129-1.608 4.257 4.257 0 00-.552-5.352 4.26 4.26 0 00-3.084-1.237h.007zm0 6.94a2.617 2.617 0 01-2.55-1.48 2.626 2.626 0 01.442-2.92 2.618 2.618 0 014.55 1.778 2.505 2.505 0 01-2.435 2.622h-.007zM48.445 23.43v1.83h4.387a3.899 3.899 0 01-1.013 2.31 4.49 4.49 0 01-3.38 1.319 4.869 4.869 0 01-4.676-2.966 4.887 4.887 0 012.752-6.474 4.869 4.869 0 011.923-.316 4.648 4.648 0 013.344 1.334l1.294-1.29a6.398 6.398 0 00-4.6-1.903 6.701 6.701 0 00-4.947 1.85 6.718 6.718 0 00-2.078 4.861 6.725 6.725 0 002.078 4.861 6.71 6.71 0 004.946 1.85 5.91 5.91 0 004.5-1.688 5.927 5.927 0 001.766-4.475 6.628 6.628 0 00-.104-1.148l-6.191.045zm45.983 1.422a3.99 3.99 0 00-4.566-2.63 3.996 3.996 0 00-3.186 4.2 4.206 4.206 0 001.22 3.067 4.348 4.348 0 006.658-.66l-1.48-1.014a2.473 2.473 0 01-2.086 1.2 2.217 2.217 0 01-2.094-1.311l5.778-2.393-.244-.46zm-5.918 1.481a2.41 2.41 0 01.6-1.733 2.368 2.368 0 011.656-.785 1.67 1.67 0 011.598.918l-3.854 1.6zm-4.69 4.186h1.901V17.777H83.82v12.74zm-3.1-7.408h-.074a3.056 3.056 0 00-2.234-1.06 4.318 4.318 0 00-2.938 1.328 4.329 4.329 0 002.938 7.317 2.955 2.955 0 002.271-1.015h.06v.623c0 1.652-.88 2.54-2.301 2.54a2.388 2.388 0 01-2.175-1.533l-1.65.689a4.102 4.102 0 003.795 2.548c2.22 0 4.062-1.311 4.062-4.504v-7.689h-1.746l-.008.756zm-2.174 5.978a2.625 2.625 0 01-2.43-2.622 2.632 2.632 0 012.43-2.623 2.432 2.432 0 012.183 1.664c.102.308.142.634.117.959a2.412 2.412 0 01-.592 1.807 2.456 2.456 0 01-1.716.815h.008zm24.773-11.311h-4.541V30.48h1.901v-4.814h2.648a3.937 3.937 0 003.86-2.375 3.944 3.944 0 000-3.133 3.938 3.938 0 00-3.86-2.374l-.008-.007zm0 6.096h-2.648v-4.326h2.685a2.182 2.182 0 012.056 2.182 2.187 2.187 0 01-2.056 2.181l-.037-.037zm11.696-1.83a3.542 3.542 0 00-3.381 1.941l1.687.74a1.796 1.796 0 011.723-.94 1.827 1.827 0 012.035 1.637v.133a4.2 4.2 0 00-1.983-.488c-1.812 0-3.654 1.014-3.654 2.859a2.955 2.955 0 003.151 2.793 2.677 2.677 0 002.434-1.223h.059v1.015h1.827V25.6c0-2.222-1.686-3.519-3.846-3.519l-.052-.037zm-.23 6.963c-.621 0-1.479-.318-1.479-1.081 0-1.015 1.08-1.348 2.034-1.348a3.416 3.416 0 011.724.422 2.304 2.304 0 01-2.219 2.037l-.06-.03zm10.786-6.666l-2.175 5.51h-.059l-2.219-5.51h-2.035l3.381 7.703-1.931 4.274h1.983l5.178-11.977h-2.123zm-17.059 8.148h1.894V17.778h-1.894v12.71z" fill="#222A30"/><path d="M10.593 7.66c-.33.397-.496.905-.466 1.421v22.482a2.031 2.031 0 00.466 1.422l.074.074 12.576-12.592v-.297L10.667 7.578l-.074.081z" fill="url(#paint0_linear)"/><path d="M27.37 24.674l-4.164-4.2v-.296l4.164-4.2.09.044 4.985 2.837c1.42.8 1.42 2.126 0 2.963l-4.964 2.823-.11.03z" fill="url(#paint1_linear)"/><path d="M27.518 24.615l-4.283-4.29-12.642 12.66a1.663 1.663 0 002.116.06l14.794-8.43" fill="url(#paint2_linear)"/><path d="M27.518 16.037L12.723 7.6a1.648 1.648 0 00-2.108.06l12.65 12.666 4.253-4.289z" fill="url(#paint3_linear)"/><path opacity=".2" d="M27.37 24.519l-14.676 8.385a1.685 1.685 0 01-2.027 0l-.074.074.074.066a1.685 1.685 0 002.027 0l14.795-8.43-.119-.095z" fill="#000"/><path opacity=".12" d="M10.593 32.844a2.04 2.04 0 01-.466-1.422v.148a2.017 2.017 0 00.466 1.423l.074-.067-.074-.082zm21.882-11.2L27.37 24.52l.09.096 4.985-2.83a1.768 1.768 0 001.014-1.481 1.897 1.897 0 01-.984 1.34z" fill="#000"/><path opacity=".25" d="M12.694 7.74L32.474 19a1.894 1.894 0 011.014 1.326 1.779 1.779 0 00-1.013-1.482L12.694 7.6c-1.42-.8-2.574-.133-2.574 1.481v.148c.03-1.622 1.161-2.288 2.574-1.488z" fill="#fff"/></g><defs><linearGradient id="paint0_linear" x1="22.199" y1="8.684" x2="2.04" y2="14.035" gradientUnits="userSpaceOnUse"><stop stop-color="#00A0FF"/><stop offset=".01" stop-color="#00A1FF"/><stop offset=".26" stop-color="#00BEFF"/><stop offset=".51" stop-color="#00D2FF"/><stop offset=".76" stop-color="#00DFFF"/><stop offset="1" stop-color="#00E3FF"/></linearGradient><linearGradient id="paint1_linear" x1="34.258" y1="20.497" x2="9.648" y2="20.497" gradientUnits="userSpaceOnUse"><stop stop-color="#FFE000"/><stop offset=".41" stop-color="#FFBD00"/><stop offset=".78" stop-color="orange"/><stop offset="1" stop-color="#FF9C00"/></linearGradient><linearGradient id="paint2_linear" x1="25.387" y1="22.702" x2="9.075" y2="49.855" gradientUnits="userSpaceOnUse"><stop stop-color="#FF3A44"/><stop offset="1" stop-color="#C31162"/></linearGradient><linearGradient id="paint3_linear" x1="7.593" y1=".214" x2="14.843" y2="12.38" gradientUnits="userSpaceOnUse"><stop stop-color="#32A071"/><stop offset=".07" stop-color="#2DA771"/><stop offset=".48" stop-color="#15CF74"/><stop offset=".8" stop-color="#06E775"/><stop offset="1" stop-color="#00F076"/></linearGradient><clipPath id="clip0"><path fill="#fff" d="M0 0h137v40H0z"/></clipPath></defs></svg>