<svg width="126" height="40" fill="none" xmlns="http://www.w3.org/2000/svg"><path d="M8.092 40h-.97a13.988 13.988 0 01-1.998-.17 6.369 6.369 0 01-1.763-.57 5.768 5.768 0 01-2.604-2.55 5.787 5.787 0 01-.575-1.733A12.128 12.128 0 010 33.03V6.978c.014-.656.077-1.31.19-1.956a6.1 6.1 0 01.567-1.74A5.708 5.708 0 011.839 1.8 6.055 6.055 0 013.353.74 6.504 6.504 0 015.124.186 13.778 13.778 0 017.13 0h111.755c.664.009 1.327.066 1.983.17.61.108 1.201.3 1.756.57a5.88 5.88 0 012.096 1.757 5.722 5.722 0 011.053 2.496c.112.654.175 1.315.189 1.977v26.067a13.88 13.88 0 01-.182 1.94 6.025 6.025 0 01-.582 1.749 5.995 5.995 0 01-2.574 2.533 6.467 6.467 0 01-1.779.57c-.663.106-1.334.163-2.006.171H8.092z" fill="#fff"/><path d="M25.32 20.148a5.1 5.1 0 01.688-2.466 5.237 5.237 0 011.81-1.845 5.323 5.323 0 00-1.844-1.6 5.449 5.449 0 00-2.38-.622c-1.787-.178-3.505 1.044-4.413 1.044-.909 0-2.324-1.022-3.823-.992a5.723 5.723 0 00-2.76.792 5.567 5.567 0 00-2 2.023c-2.045 3.466-.516 8.57 1.445 11.377.984 1.378 2.127 2.911 3.633 2.86 1.507-.052 2.021-.919 3.785-.919 1.764 0 2.27.919 3.785.881 1.513-.037 2.566-1.377 3.52-2.77a11.132 11.132 0 001.604-3.207 5.046 5.046 0 01-2.22-1.832 4.886 4.886 0 01-.83-2.724zm-2.892-8.392a4.96 4.96 0 001.18-3.608 5.337 5.337 0 00-3.398 1.726 4.722 4.722 0 00-1.21 3.46 4.418 4.418 0 001.899-.404 4.326 4.326 0 001.53-1.174zm21.475 15.481h-5.019l-1.203 3.482h-2.105l4.746-12.882h2.21l4.754 12.882h-2.18l-1.203-3.482zm-4.497-1.607h3.974L41.42 20h-.053l-1.96 5.63zm18.121.392c0 2.919-1.597 4.793-4.004 4.793a3.305 3.305 0 01-1.756-.394 3.213 3.213 0 01-1.272-1.25h-.045v4.651h-1.968V21.326h1.907v1.563a3.38 3.38 0 011.283-1.234 3.474 3.474 0 011.745-.425c2.506 0 4.11 1.881 4.11 4.792zm-2.02 0c0-1.896-1.007-3.148-2.536-3.148-1.53 0-2.521 1.274-2.521 3.148s1.022 3.163 2.536 3.163 2.52-1.244 2.52-3.163zm12.58 0c0 2.919-1.597 4.793-4.005 4.793a3.305 3.305 0 01-1.756-.394 3.213 3.213 0 01-1.271-1.25h-.046v4.651h-1.968V21.326h1.908v1.563a3.38 3.38 0 011.282-1.234 3.474 3.474 0 011.745-.425c2.506 0 4.148 1.881 4.148 4.792h-.037zm-2.021 0c0-1.896-1.007-3.148-2.536-3.148-1.53 0-2.52 1.274-2.52 3.148s1.014 3.163 2.52 3.163 2.536-1.244 2.536-3.163zm9 1.111c.151 1.274 1.415 2.111 3.148 2.111 1.734 0 2.854-.837 2.854-1.985 0-1-.719-1.6-2.43-2.015l-1.703-.4c-2.414-.57-3.512-1.674-3.512-3.474 0-2.222 1.976-3.748 4.784-3.748s4.693 1.526 4.754 3.748H80.97c-.114-1.281-1.204-2.059-2.786-2.059s-2.672.785-2.672 1.926c0 .911.69 1.482 2.385 1.86l1.453.348c2.702.622 3.785 1.688 3.785 3.57 0 2.407-1.96 3.918-5.08 3.918-2.921 0-4.89-1.481-5.018-3.8h2.029zm12.33-8.03v2.223h1.824v1.526h-1.824v5.185c0 .808.371 1.178 1.166 1.178.218 0 .435-.015.65-.044v1.518a5.445 5.445 0 01-1.09.089c-1.945 0-2.701-.74-2.701-2.534v-5.392h-1.4v-1.526h1.392v-2.222h1.983zm2.884 6.92c0-2.964 1.779-4.808 4.542-4.808s4.541 1.852 4.541 4.807c0 2.956-1.756 4.815-4.541 4.815-2.786 0-4.542-1.852-4.542-4.815zm7.093 0c0-2.023-.947-3.223-2.544-3.223s-2.543 1.207-2.543 3.222c0 2.015.946 3.223 2.543 3.223 1.598 0 2.544-1.186 2.544-3.223zm3.633-4.697h1.877v1.637h.061c.115-.501.404-.948.818-1.264a2.306 2.306 0 011.453-.47c.226 0 .452.024.673.075v1.8a2.74 2.74 0 00-.885-.111 2.017 2.017 0 00-.85.14 1.98 1.98 0 00-.707.482 1.94 1.94 0 00-.43.73 1.883 1.883 0 00-.072.84v5.57h-1.968l.03-9.429zm13.988 6.667c-.265 1.703-1.968 2.874-4.133 2.874-2.793 0-4.541-1.83-4.541-4.77 0-2.941 1.741-4.853 4.443-4.853 2.702 0 4.322 1.786 4.322 4.63v.66h-6.775v.118a2.392 2.392 0 00.689 1.867c.247.247.545.44.873.569a2.57 2.57 0 001.035.171c.465.042.932-.063 1.331-.3.399-.238.71-.595.887-1.018l1.869.052zm-6.661-2.808h4.799a2.176 2.176 0 00-.131-.918 2.23 2.23 0 00-.503-.785c-.222-.225-.49-.4-.787-.517a2.313 2.313 0 00-.933-.157 2.474 2.474 0 00-.937.174 2.43 2.43 0 00-.796.514 2.39 2.39 0 00-.712 1.69zM39.157 8.148c.419-.035.84.023 1.233.169a2.767 2.767 0 011.666 1.705 2.7 2.7 0 01.128 1.193c0 1.978-1.097 3.111-2.982 3.111h-2.27V8.148h2.225zm-1.31 5.311h1.196a2.03 2.03 0 00.861-.14c.273-.11.518-.276.718-.488a1.92 1.92 0 00.503-1.594 1.901 1.901 0 00-.066-.853 1.93 1.93 0 00-.434-.743c-.2-.213-.445-.38-.719-.488a2.022 2.022 0 00-.863-.138h-1.196v4.444zm5.39-1.481c-.037-.41.044-.82.232-1.188.188-.367.477-.676.834-.892a2.308 2.308 0 012.378-.01c.357.219.645.53.832.898.187.37.266.782.227 1.192.042.313.015.632-.08.934a2.209 2.209 0 01-.466.819 2.27 2.27 0 01-.77.558 2.312 2.312 0 01-2.642-.558 2.209 2.209 0 01-.466-.82 2.176 2.176 0 01-.08-.933zm3.534 0c0-1.015-.469-1.608-1.279-1.608-.81 0-1.28.593-1.28 1.608 0 1.015.455 1.607 1.28 1.607s1.28-.592 1.28-1.607zm6.956 2.355h-.976l-.984-3.437h-.076l-.984 3.437h-.968l-1.31-4.666h.954l.855 3.563h.068l.977-3.563h.908l.984 3.563h.068l.855-3.563h.939l-1.31 4.666zm2.415-4.666h.909v.74h.068c.119-.266.32-.489.575-.638a1.45 1.45 0 01.848-.191 1.545 1.545 0 011.273.46 1.451 1.451 0 01.385 1.273v3.023h-.947V11.54c0-.74-.333-1.119-1.03-1.119a1.112 1.112 0 00-.847.334 1.04 1.04 0 00-.287.844v2.734h-.947V9.667zm5.556-1.822h.939v6.489h-.939V7.845zM63.946 12c0-.59.24-1.155.665-1.571a2.296 2.296 0 011.606-.651 2.3 2.3 0 011.606.65A2.2 2.2 0 0168.488 12c0 .59-.24 1.155-.665 1.571a2.296 2.296 0 01-1.606.651 2.3 2.3 0 01-1.606-.65A2.198 2.198 0 0163.946 12zm3.535 0c0-1.015-.462-1.607-1.279-1.607s-1.28.592-1.28 1.607c0 1.015.463 1.607 1.28 1.607s1.28-.592 1.28-1.607zm1.96 1.015c0-.845.636-1.326 1.772-1.393l1.294-.074v-.437c0-.489-.333-.74-.976-.74-.523 0-.893.192-.992.518h-.9c.098-.8.87-1.311 1.952-1.311 1.083 0 1.832.578 1.832 1.533v3.193h-.908v-.652h-.076a1.607 1.607 0 01-.614.558c-.251.13-.533.193-.817.183a1.49 1.49 0 01-1.09-.319 1.373 1.373 0 01-.477-1.06zm3.066-.422v-.37l-1.165.073c-.659.045-.954.267-.954.674 0 .408.37.667.885.667a1.134 1.134 0 00.85-.259 1.094 1.094 0 00.384-.785zm2.18-.615c0-1.482.757-2.415 1.976-2.415.299-.011.595.06.855.205.26.146.472.36.613.617h.068v-2.54h.94v6.488h-.902v-.74h-.075a1.64 1.64 0 01-.64.615c-.267.144-.57.213-.874.2-1.196.007-1.96-.934-1.96-2.408v-.022zm.97 0c0 .985.476 1.585 1.27 1.585.796 0 1.288-.607 1.288-1.585s-.492-1.585-1.287-1.585c-.795 0-1.234.622-1.234 1.607l-.038-.022zm7.38 0c-.037-.41.044-.82.232-1.188a2.24 2.24 0 01.833-.892 2.308 2.308 0 012.378-.01c.357.219.646.53.833.898.187.37.266.782.227 1.192a2.2 2.2 0 01-.665 1.571 2.297 2.297 0 01-1.606.651 2.3 2.3 0 01-1.606-.65 2.199 2.199 0 01-.665-1.572h.038zm3.534 0c0-1.015-.47-1.608-1.287-1.608s-1.279.593-1.279 1.608c0 1.015.462 1.607 1.28 1.607.817 0 1.286-.57 1.286-1.585v-.022zm2.233-2.334h.9v.741h.077c.117-.268.318-.492.573-.641.256-.15.553-.215.85-.188a1.544 1.544 0 011.267.463 1.451 1.451 0 01.383 1.27v3.022h-.946v-2.77c0-.741-.333-1.119-1.03-1.119a1.103 1.103 0 00-.847.331 1.055 1.055 0 00-.288.847v2.733h-.939V9.644zm9.371-1.162v1.185h1.03v.74h-1.03v2.408c0 .489.204.704.674.704.118.007.237.007.355 0v.74a3.782 3.782 0 01-.507.052c-1.052 0-1.468-.363-1.468-1.267V10.46h-.757v-.74h.757V8.533l.946-.051zm2.316-.66h.939v2.57h.076c.127-.261.333-.48.59-.625.256-.145.552-.211.848-.19a1.603 1.603 0 011.238.494 1.53 1.53 0 01.404 1.248v3.014h-.946v-2.785c0-.74-.356-1.126-1.014-1.126a1.152 1.152 0 00-.886.319 1.077 1.077 0 00-.318.867v2.725h-.946l.015-6.51zm9.598 5.23a1.89 1.89 0 01-.782 1.042 1.963 1.963 0 01-1.284.306 2.208 2.208 0 01-.915-.172 2.155 2.155 0 01-.756-.533c-.21-.229-.366-.5-.458-.794a2.072 2.072 0 01-.074-.908 2.128 2.128 0 01.531-1.712 2.221 2.221 0 011.672-.725c1.324 0 2.127.881 2.127 2.348v.326h-3.369v.051a1.211 1.211 0 00.334.94c.118.129.263.23.425.297.162.068.337.1.513.097a1.15 1.15 0 001.136-.563h.9zm-3.308-1.482h2.408a1.132 1.132 0 00-.311-.859 1.196 1.196 0 00-.863-.34 1.255 1.255 0 00-.878.355 1.146 1.146 0 00-.356.86v-.016z" fill="#222A30"/></svg>