<?xml version="1.0" encoding="utf-8"?><svg viewBox="0 0 178 80" xmlns="http://www.w3.org/2000/svg" xmlns:xlink="http://www.w3.org/1999/xlink"><style>:root>svg{display:none}:root>svg:target{display:block}</style><svg fill="none" viewBox="0 0 15 10" id="arrow-left" xmlns="http://www.w3.org/2000/svg"><path d="M15 5H1m0 0l3.907-4M1 5l3.907 4" stroke="#DF1E42"/></svg><svg fill="none" viewBox="0 0 15 10" id="arrow-left-white" xmlns="http://www.w3.org/2000/svg"><path d="M15 5H1m0 0l3.907-4M1 5l3.907 4" stroke="#fff"/></svg><svg fill="none" viewBox="0 0 15 10" id="arrow-right" xmlns="http://www.w3.org/2000/svg"><path d="M0 5h14m0 0l-3.907 4M14 5l-3.907-4" stroke="#DF1E42"/></svg><svg fill="none" viewBox="0 0 15 10" id="arrow-right-white" xmlns="http://www.w3.org/2000/svg"><path d="M0 5h14m0 0l-3.907 4M14 5l-3.907-4" stroke="#fff"/></svg><svg fill="none" viewBox="0 0 10 15" id="arrow-top" xmlns="http://www.w3.org/2000/svg"><path d="M5 15V1m0 0l4 3.907M5 1L1 4.907" stroke="#fff"/></svg><svg fill="none" viewBox="0 0 26 25" id="cross" xmlns="http://www.w3.org/2000/svg"><path d="M1.686 1.314L24.314 23.94m0-22.627L1.686 23.94" stroke="#fff" stroke-width="2" stroke-linecap="round"/></svg><svg fill="none" viewBox="0 0 8 10" id="download" xmlns="http://www.w3.org/2000/svg"><path d="M4 1.25v7.5m0 0l3-3m-3 3l-3-3" stroke="#222A30" stroke-opacity=".75" stroke-linecap="round"/></svg><svg fill="none" viewBox="0 0 8 10" id="download-hover" xmlns="http://www.w3.org/2000/svg"><path d="M4 1.25v7.5m0 0l3-3m-3 3l-3-3" stroke="#DF1E42" stroke-opacity=".75" stroke-linecap="round"/></svg><svg fill="none" viewBox="0 0 64 65" id="employers" xmlns="http://www.w3.org/2000/svg"><path d="M56 64V53.766a8 8 0 00-5.47-7.59L44 44l-4.415-1.471a3 3 0 00-2.869.54l-.875.73a6 6 0 01-7.682 0l-.875-.73a3 3 0 00-2.87-.54L20 44l-6.53 2.177A8 8 0 008 53.767V64h48z" stroke="#004391" stroke-linecap="round"/><path d="M15 63.5V55a1 1 0 011-1h1.5a1 1 0 001-1v-8.5m30.5 19V55a1 1 0 00-1-1h-1.5a1 1 0 01-1-1v-8.5m-23-1v9a1 1 0 001 1h9" stroke="#004391" stroke-linecap="round"/><path d="M41.5 43.5v9a1 1 0 01-1 1h-9M22 24v5c0 5.523 4.477 10 10 10s10-4.477 10-10v-5m-13-4h-9a2 2 0 00-2 2v0a2 2 0 002 2h24a2 2 0 002-2v0a2 2 0 00-2-2h-2m2 0c0-5.592-3.824-10.29-9-11.622M20 20c0-5.592 3.824-10.29 9-11.622M27.5 38c-.667 1.333 0 3.5-3 4.5m12-4.5c.667 1.333 0 3.5 3 4.5M36 13l-1.81-7.243A1 1 0 0033.22 5h-2.44a1 1 0 00-.97.757L28 13" stroke="#004391" stroke-linecap="round"/></svg><svg fill="none" viewBox="0 0 24 25" id="file" xmlns="http://www.w3.org/2000/svg"><path d="M6 20.496h-.5a.5.5 0 00.5.5v-.5zm0-15.5v-.5a.5.5 0 00-.5.5H6zm12.5 15.5v.5a.5.5 0 00.5-.5h-.5zm0-11.5h.5a.5.5 0 00-.146-.354l-.354.354zm-4-4l.354-.354a.5.5 0 00-.854.354h.5zm-2.25.5a.5.5 0 000-1v1zm2.25 3.5H14a.5.5 0 00.5.5v-.5zm-8 11.5v-15.5h-1v15.5h1zm-.5.5h12.5v-1H6v1zm13-.5v-11.5h-1v11.5h1zm-.146-11.854l-4-4-.708.707 4 4 .708-.707zM12.25 4.496H6v1h6.25v-1zm1.75.5v4h1v-4h-1zm.5 4.5h2v-1h-2v1zm2 0h2v-1h-2v1z" fill="#004391"/><path d="M9.5 13.996h6m-3-3v6" stroke="#DF1E42" stroke-linecap="round"/></svg><svg fill="none" viewBox="0 0 24 25" id="file-disabled" xmlns="http://www.w3.org/2000/svg"><path d="M6 20.496h-.5a.5.5 0 00.5.5v-.5zm0-15.5v-.5a.5.5 0 00-.5.5H6zm12.5 15.5v.5a.5.5 0 00.5-.5h-.5zm0-11.5h.5a.5.5 0 00-.146-.354l-.354.354zm-4-4l.354-.354a.5.5 0 00-.854.354h.5zm-2.25.5a.5.5 0 000-1v1zm2.25 3.5H14a.5.5 0 00.5.5v-.5zm-8 11.5v-15.5h-1v15.5h1zm-.5.5h12.5v-1H6v1zm13-.5v-11.5h-1v11.5h1zm-.146-11.854l-4-4-.708.707 4 4 .708-.707zM12.25 4.496H6v1h6.25v-1zm1.75.5v4h1v-4h-1zm.5 4.5h2v-1h-2v1zm2 0h2v-1h-2v1z" fill="#004391" fill-opacity=".5"/><path d="M9.5 13.996h6m-3-3v6" stroke="#004391" stroke-opacity=".5" stroke-linecap="round"/></svg><svg fill="none" viewBox="0 0 24 25" id="file-hover" xmlns="http://www.w3.org/2000/svg"><path d="M6 20.496h-.5a.5.5 0 00.5.5v-.5zm0-15.5v-.5a.5.5 0 00-.5.5H6zm12.5 15.5v.5a.5.5 0 00.5-.5h-.5zm0-11.5h.5a.5.5 0 00-.146-.354l-.354.354zm-4-4l.354-.354a.5.5 0 00-.854.354h.5zm-2.25.5a.5.5 0 000-1v1zm2.25 3.5H14a.5.5 0 00.5.5v-.5zm-8 11.5v-15.5h-1v15.5h1zm-.5.5h12.5v-1H6v1zm13-.5v-11.5h-1v11.5h1zm-.146-11.854l-4-4-.708.707 4 4 .708-.707zM12.25 4.496H6v1h6.25v-1zm1.75.5v4h1v-4h-1zm.5 4.5h2v-1h-2v1zm2 0h2v-1h-2v1z" fill="#DF1E42"/><path d="M9.5 13.996h6m-3-3v6" stroke="#DF1E42" stroke-linecap="round"/></svg><svg fill="none" viewBox="0 0 16 20" id="geo" xmlns="http://www.w3.org/2000/svg"><path fill-rule="evenodd" clip-rule="evenodd" d="M8 20c.418 0 8-5.582 8-12A8 8 0 100 8c0 6.418 7.582 12 8 12zm0-7.2a4.8 4.8 0 100-9.6 4.8 4.8 0 000 9.6z" fill="#004391"/></svg><svg fill="none" viewBox="0 0 16 20" id="geo-hover" xmlns="http://www.w3.org/2000/svg"><path fill-rule="evenodd" clip-rule="evenodd" d="M8 20c.418 0 8-5.582 8-12A8 8 0 100 8c0 6.418 7.582 12 8 12zm0-7.2a4.8 4.8 0 100-9.6 4.8 4.8 0 000 9.6z" fill="#DF1E42"/></svg><svg fill="none" viewBox="0 0 16 20" id="geo-white" xmlns="http://www.w3.org/2000/svg"><path fill-rule="evenodd" clip-rule="evenodd" d="M8 20c.418 0 8-5.582 8-12A8 8 0 100 8c0 6.418 7.582 12 8 12zm0-7.2a4.8 4.8 0 100-9.6 4.8 4.8 0 000 9.6z" fill="#fff"/></svg><svg fill="none" viewBox="0 0 64 65" id="houses" xmlns="http://www.w3.org/2000/svg"><path stroke="#004391" stroke-linecap="round" stroke-linejoin="round" d="M12.5 7h37v3h-37zm5-2h27v2h-27zm3 11h3v5h-3zm0 8h3v5h-3zm0 8h3v5h-3zm0 8h3v5h-3zm0 8h3v5h-3zm6-32h3v5h-3zm0 8h3v5h-3zm0 8h3v5h-3zm0 8h3v5h-3zm0 8h3v5h-3zm6-32h3v5h-3zm0 8h3v5h-3zm0 8h3v5h-3zm0 8h3v5h-3zm0 8h3v5h-3zm6-32h3v5h-3zm0 8h3v5h-3zm0 8h3v5h-3zm0 8h3v5h-3zm0 8h3v5h-3z"/><circle cx="56.5" cy="46" r="5" stroke="#004391" stroke-linecap="round" stroke-linejoin="round"/><path d="M56.5 51v9m3.182-7.5l-3.182 3M6.5 31h9v29h-9zm-3-3h12v3h-12z" stroke="#004391" stroke-linecap="round" stroke-linejoin="round"/><path stroke="#004391" stroke-linecap="round" stroke-linejoin="round" d="M9.5 35h3v5h-3zm0 8h3v5h-3zm0 8h3v5h-3zm6-41h31v50h-31z"/><path stroke="#004391" stroke-width=".5" stroke-linecap="round" stroke-linejoin="round" d="M4.25 59.75h56.5v.5H4.25z"/></svg><svg fill="none" viewBox="0 0 24 24" id="icon-download" xmlns="http://www.w3.org/2000/svg"><rect width="24" height="24" rx="12" fill="#E1EAF0"/><path d="M12 7v7m0 0l3-3m-3 3l-3-3m1 6h4" stroke="#004391" stroke-linecap="round"/></svg><svg fill="none" viewBox="0 0 24 24" id="icon-zoom" xmlns="http://www.w3.org/2000/svg"><rect width="24" height="24" rx="12" fill="#E1EAF0"/><path d="M7 11V8h4m6 5v3h-4m0-8h4v3m-6 5H7v-3" stroke="#004391" stroke-linecap="round"/></svg><svg fill="none" viewBox="0 0 5 7" id="link" xmlns="http://www.w3.org/2000/svg"><path d="M1.5 6.249l2-2.5-2-2.5" stroke="#004391" stroke-width="1.5" stroke-linecap="round"/></svg><svg viewBox="0 0 9 7" fill="none" id="link-hover" xmlns="http://www.w3.org/2000/svg"><path d="M5.5 6.187l2-2.5m0 0l-2-2.5m2 2.5h-6" stroke="#DF1E42" stroke-width="1.5" stroke-linecap="round"/></svg><svg fill="none" viewBox="0 0 178 80" id="logo" xmlns="http://www.w3.org/2000/svg"><path d="M86.25 40.181l2.052-.974c.302.742 1.09 1.345 2.052 1.345 1.229 0 2.04-.696 2.353-1.716h-3.813V36.75h3.767c-.336-.927-1.136-1.577-2.307-1.577a2.23 2.23 0 00-2.052 1.345l-2.051-.974c.603-1.228 1.808-2.492 4.045-2.492 2.84 0 5.02 1.936 5.02 4.8 0 2.85-2.18 4.798-5.02 4.798-2.237.023-3.454-1.275-4.045-2.469zM98.294 42.5v-7.187h-2.596v-2.087h7.58v2.087h-2.584v7.186h-2.4zm11.568 0l-.463-1.334h-3.652l-.463 1.333h-2.713l3.489-9.273h3.003l3.5 9.273h-2.701zm-2.295-6.91l-1.182 3.49h2.365l-1.183-3.49zm5.182 4.962c.857 0 1.414-.51 1.68-2.631l.557-4.695h6.908V42.5h-2.388v-7.186h-2.364l-.337 2.793c-.44 3.756-2.028 4.555-4.056 4.555v-2.11zm10.351-2.678c0-2.816 2.121-4.799 4.961-4.799 2.839 0 4.949 1.971 4.949 4.8 0 2.828-2.11 4.798-4.949 4.798-2.84 0-4.961-1.982-4.961-4.799zm7.476 0c0-1.518-.985-2.677-2.515-2.677-1.542 0-2.527 1.17-2.527 2.677 0 1.507.985 2.69 2.527 2.69 1.53-.012 2.515-1.194 2.515-2.69zm9.887 4.626v-3.722h-3.848V42.5h-2.388v-9.273h2.388v3.466h3.848v-3.466h2.388V42.5h-2.388zm-54.05 9.747c0-2.863 2.168-4.798 5.02-4.798 2.236 0 3.43 1.263 4.045 2.492l-2.052.973c-.301-.742-1.101-1.344-1.982-1.344-1.519 0-2.585 1.17-2.585 2.677 0 1.519 1.067 2.69 2.585 2.69.892 0 1.68-.615 1.982-1.345l2.052.974c-.603 1.194-1.808 2.492-4.046 2.492-2.851-.012-5.019-1.96-5.019-4.81zm10.097 4.625V47.6h6.792v2.087h-4.405v1.449h4.312v2.086h-4.312v1.577h4.405v2.086h-6.793v-.012zm8.194 0V47.6h4.648c2.087 0 3.223 1.403 3.223 3.084 0 1.669-1.136 3.071-3.223 3.071h-2.26v3.118h-2.388zm5.437-6.19c0-.637-.476-.996-1.113-.996h-1.936v1.982h1.936c.637.011 1.113-.36 1.113-.985zm3.512 6.19V47.6h5.251c1.831 0 2.712 1.194 2.712 2.365 0 1.159-.707 1.936-1.588 2.121.985.15 1.762 1.101 1.762 2.272 0 1.345-.904 2.515-2.724 2.515h-5.413zm5.529-6.49c0-.441-.336-.766-.823-.766h-2.318v1.542h2.318c.487 0 .823-.313.823-.777zm.185 3.639c0-.464-.336-.835-.915-.835h-2.411v1.67h2.411c.568 0 .915-.337.915-.835zm3.744 2.851V47.6h2.388v5.46l3.756-5.46h2.469v9.273h-2.4v-5.726l-3.906 5.726h-2.307zm9.818-4.625c0-2.863 2.168-4.798 5.019-4.798 2.237 0 3.431 1.263 4.045 2.492l-2.063.973c-.301-.742-1.101-1.344-1.982-1.344-1.518 0-2.585 1.17-2.585 2.677 0 1.519 1.067 2.69 2.585 2.69.893 0 1.681-.615 1.982-1.345l2.063.974c-.602 1.194-1.808 2.492-4.045 2.492-2.851-.012-5.019-1.96-5.019-4.81zM86.03 64.117l.314-.626a.66.66 0 00.394.15c.197 0 .29-.069.382-.231l-1.113-2.214h.905l.672 1.449.672-1.449h.904l-1.251 2.48c-.198.383-.51.661-1.079.661-.313.012-.614-.07-.8-.22zm5.425.173v-2.399H90.17v2.4h-.8v-3.095h2.875v3.095h-.789zm1.345 0v-3.094h1.553c.696 0 1.078.464 1.078 1.032 0 .556-.382 1.02-1.078 1.02H93.6v1.043h-.8zm1.82-2.062c0-.209-.163-.337-.371-.337h-.65v.661h.65c.209.012.37-.116.37-.324zm2.932 2.062l-.15-.44h-1.217l-.151.44h-.904l1.159-3.094h.997l1.17 3.095h-.904zm-.765-2.306l-.394 1.16h.788l-.394-1.16zm1.901 2.306v-3.094h1.751c.614 0 .904.394.904.788 0 .383-.232.65-.533.707.324.047.591.371.591.754 0 .452-.302.834-.904.834h-1.809v.012zm1.843-2.155c0-.15-.116-.255-.278-.255h-.776v.51h.776c.174 0 .278-.104.278-.255zm.058 1.205c0-.15-.116-.278-.301-.278h-.8v.557h.8c.185 0 .301-.105.301-.279zm1.078.302c.29 0 .476-.174.557-.881l.185-1.565h2.307v3.095h-.8v-2.4h-.788l-.116.928c-.151 1.252-.672 1.518-1.356 1.518v-.695h.011zm3.478.648l.626-1.135a.947.947 0 01-.626-.927c0-.58.394-1.032 1.078-1.032h1.541v3.095h-.799v-1.043h-.406l-.51 1.043h-.904zm1.843-1.726v-.66h-.626c-.209 0-.383.115-.383.324 0 .22.174.336.383.336h.626zm2.654.486h-.51v1.24h-.8v-3.094h.8v1.16h.522c.174-.72.8-1.206 1.611-1.206.95 0 1.657.66 1.657 1.6 0 .938-.707 1.599-1.657 1.599-.835 0-1.484-.522-1.623-1.298zm2.469-.3c0-.51-.336-.893-.846-.893s-.835.394-.835.892c0 .499.325.893.835.893s.846-.394.846-.893zm5.367-1.542v2.399h.278v1.263h-.8v-.568h-3.639v-3.094h.799v2.399h.881v-2.4h.8v2.4h.881v-2.4h.8zm2.735 3.082l-.15-.44h-1.217l-.151.44h-.904l1.159-3.094h.997l1.17 3.095h-.904zm-.765-2.306l-.394 1.16h.788l-.394-1.16zm1.762 2.306l.626-1.135a.947.947 0 01-.626-.927c0-.58.394-1.032 1.078-1.032h1.542v3.095h-.8v-1.043h-.406l-.51 1.043h-.904zm1.843-1.726v-.66h-.626c-.208 0-.382.115-.382.324 0 .22.174.336.382.336h.626zm4.359 1.726l-.812-1.158-.208.255v.904h-.8v-3.095h.8v1.275l.95-1.275h.985l-1.205 1.449 1.263 1.646h-.973z" fill="#231F20"/><path d="M128.269 62.75c0-.94.707-1.6 1.658-1.6.95 0 1.646.66 1.646 1.6 0 .938-.707 1.599-1.646 1.599s-1.658-.66-1.658-1.6zm2.492 0c0-.51-.324-.893-.834-.893s-.846.394-.846.892c0 .499.324.893.846.893.498 0 .834-.394.834-.893zm3.918 1.54v-2.016l-.776 2.017h-.348l-.777-2.017v2.017h-.799v-3.095h1.112l.649 1.68.65-1.68h1.112v3.095h-.823zm3.443 0v-2.399h-1.287v2.4h-.8v-3.095h2.875v3.095h-.788zm3.454 0l-.151-.44h-1.217l-.15.44h-.904l1.159-3.094h.996l1.171 3.095h-.904zm-.765-2.306l-.394 1.16h.788l-.394-1.16zm3.976 2.306v-1.24H143.5v1.24h-.8v-3.094h.8v1.16h1.287v-1.16h.8v3.095h-.8zm1.356 0v-3.094h.8v1.82l1.252-1.82h.823v3.095h-.8v-1.913l-1.298 1.913h-.777zm3.304 0l.626-1.135a.947.947 0 01-.626-.927c0-.58.394-1.032 1.078-1.032h1.541v3.095h-.8v-1.043h-.405l-.51 1.043h-.904zm1.831-1.726v-.66h-.626c-.209 0-.382.115-.382.324 0 .22.173.336.382.336h.626z" fill="#231F20"/><path d="M74.509 36.275a1.69 1.69 0 00-.383.22c-.232-.29-.394-.522-.463-.66-.302-.592-1.032-.951-1.299-1.287a2.023 2.023 0 00-1.449-.777c-.718-.046-3.013-.417-3.013-.417l-.788-.302c-.232-.092-.777-.231-1.415-.37.186-.117.383-.22.603-.337 1.16-.568 3.605-2.886 3.918-3.072.313-.197 1.09.035 1.634.789.557.742 1.96 2.608 2.029 3.651.07 1.032.637 1.113.8 1.194.162.093.115.58.197.904.092.325-.023.301-.371.464zM51.326 48.573s1.762 1.217 2.4 1.53c.637.313.822.417.927.707.116.29.232.522.382.754.151.243.232 1.02.302 1.889.058.753.498 2.469.904 3.245-2.678-1.228-4.52-3.662-5.135-6.653a8.18 8.18 0 00.093-.695c.07-.673.127-.777.127-.777zm9.25-29.419c.174-.336.742-.695.835-.521l.034.035-.394.765-.035.058-.034.058.07.15a.2.2 0 01-.14-.023c-.29-.174-.51-.185-.336-.522zm1.368-2.156c-.43-.428.336-.8.336-.8l.116.058h.011c.14.082.371.232.44.441a2.24 2.24 0 00-.173-.127c.035.185.058.37.081.567-.243.383-.417.255-.811-.139zM80.316 44.91c-.325-.44-.614-1.228-.614-1.228s-.128-.661-.661-1.252c-.533-.603-.66-.997-.765-1.542-.116-.545-.65-.916-1.391-1.46a3.476 3.476 0 01-.301-.244v-.011c-.012-.592.023-1.24.034-1.357.023-.116.452-.51.267-.788-.186-.278-.14-.209-.174-1.02-.035-.823-.127-1.182-.162-1.739-.035-.556.243-.672-.36-1.298-.602-.626-1.634-2.133-2.12-2.631-.476-.498-1.032-2.063-1.276-2.48-.243-.418-1.031-.684-1.414-1.044-.382-.36-.707-.498-1.472-.104-.765.406-3.605 1.762-3.999 1.924-.336.14-1.113.174-1.31.186.023-.116.035-.198.035-.198l-.035-.22c.058-.417-.336-.776-.278-1.46.058-.684-.394-2.075-1.055-2.817-.15-.162-.266-.29-.348-.383-.185 1.658-.475 3.304-.8 4.915-.023.14-.243.116-.22-.035.337-1.692.638-3.419.823-5.158-.092-.185-.115-.394-.197-.915-.07-.383-.405-.94-.823-1.809-.104.244-.023.36-.324.557-.15.093-.278.255-.394.394-.174.197-.394.498-.696.626-.36.162-.892.51-1.704 1.31-.568.556-2.237 2.132-2.99 2.237l-.394.232-.592.29a4.057 4.057 0 00-1.02.324c-.173.093-.452.243-.718.324-.58.186-1.101.406-1.878.858-.626.36-1.831.962-2.272 1.055.081.209-.116.058.278.556.163.209.267.452.348.696a2.495 2.495 0 00-.301.162c-.047-.162-.093-.324-.186-.452-.046-.116-.116-.22-.185-.325-.012-.011-.023-.023-.023-.034.07.093.139.208.185.313 0-.012-.012-.012-.012-.023a6.81 6.81 0 01-.672-.963c.15.21.325.452.499.673 0 0 0-.012-.012-.012-.22-.29-.383-.51-.51-.707a.561.561 0 01-.023-.139l.023.035-.012-.023-.011-.024a2.723 2.723 0 01-.035-.394c.464-.092 1.831-.382 2.411-.718.707-.406 1.31-.707 1.947-.904.638-.21.835-.499 1.496-.557.66-.07 3.442-2.017 4.033-2.596.591-.58 1.414-1.333 1.89-1.542.475-.209.626-.66.997-.893.37-.243.475-.567.59-.869.128-.301.522-.88.21-.88-.035 0-.07.01-.093.01l1.228-1.703c.209 1.924.151 3.883-.058 5.83.047.081.105.174.197.278.244-2.132.313-4.265.058-6.375l.07-.092s.012-.024.023-.058c.116.301.29.324.893.44.695.128.927.244.95-.162.023-.418-1.043-1.611-1.043-1.611l.336-.047c.487.047.927.51 1.46.846.534.337.592.22 1.067-.104.475-.325.209-.695.209-.695s.058-.151.544-.673c.487-.51-.197-.869-.985-1.738-.788-.87-.73-.95-1.298-1.623-.58-.672-1.16-1.635-1.6-2.434-.44-.8-.336-.812-.718-1.136-.383-.325-.638-.545-.638-.545s-.023-.186-.139-.765c-.093-.487-.348-.325-.695-.626.104-.36.22-.8.255-1.101.058-.626-.418-.65-.418-.65s.058.464-.162.87c-.058.093-.127.209-.209.313-.127-.081-.255-.058-.521-.046.08-.244-.209-.406-.232-.846-.023-.557.325-.476.278-.881-.011-.058-.788.44-1.124 1.275-.058.15-.105.301-.14.452-.359.023-.474.046-.985-.116-.741-.232-.452.29-1.008.243-.568-.035-1.878.522-2.597.696-.718.174-1.889 1.228-2.608 1.959-.718.73-.996.88-1.669 1.46-.672.58-1.217 1.739-1.866 2.237-.637.499-.614.684-1.565 1.182-.939.499-1.773.43-1.252.43.522 0 1.287-.14.8.115-.486.255-.834.452-.405.36.44-.093.8-.151.359.475-.44.626.267.603-.464 1.217-.742.626.279-.15.105.51-.174.66-.742 1.148-.742 1.148s.521 0 1.055-.476c.533-.487.463-.962.753-1.367.278-.418.336-.047.278.672-.058.718.325.997.603 1.715.278.707-.116.209.174.985.29.789.174 3.153.197 4.428 0 .244.011.244-.105.661h.198c.405 0 .626.023.718.035.22-.093 1.588-.325 2.052-.498.197-.07.336-.093.475-.116.209-.035.336-.047.556-.267.395-.406 2.388-1.252 3.582-1.658 1.182-.394 2.759-1.425 2.98-1.576l.069-.046c.15-.116.15-.116.116-.395-.058-.44.023-.95.173-1.193a.448.448 0 01.22-.209c.047-.012.082-.023.151-.116a.42.42 0 01.313-.197c.058-.012.07-.012.105-.058.058-.093.15-.139.232-.185-.302-.592-.267-.754-.418-1.009-.498-.904-.858-1.936-.672-2.225.185-.29.66-.058 1.113.22.313.197.915.707 1.449 1.078l.255.51s-.232.521-.116.8c.116.29.29.452.29.452l-.499.962c-.162-.128-.417-.302-.591-.244-.278.082-.58.128-.696.313-.115.186-.231.035-.417.267-.185.243-.232.081-.36.313-.138.232-.161.521-.115.916.058.394 0 .382-.232.556-.243.174-2.168 1.078-3.35 1.484-1.182.394-3.164 1.24-3.547 1.622-.382.383-.568.22-1.066.406-.498.186-2.19.87-2.19.87s-1.02-.151-1.786.023c-.765.174-2.307.695-2.712 1.078-.394.394-.533.475-.533.475s-.174-.545-.116-.696c.058-.15.463-.115.788-.208.324-.093.29-.348.185-.568-.104-.22.07-.394-.046-.371-.116.012-.278-.104-.278-.104s-.047-.163.162-.186c.209-.023.22-.012.209-.197v-.197s.22-.127.428-.197c.21-.07.21-.07-.046-.522-.255-.44-.463-.58-.394-.8.07-.22.174-.336.07-.51-.093-.173-.163-.29-.197-.59-.047-.302-.325-.627-.325-.627s.695-.475.185-.741c-.51-.267-.324.116-.498-.128-.174-.243-.093-.37-.429-.324-.324.046-.776-.058-1.17-.035-.406.035-.545-.116-1.078.104-.545.22-.986.301-1.23.568-.243.278-.637.209-.741.626-.104.417-.15.637-.371.927-.22.29-.406.87-.116 1.275.29.418.429.348.243.615-.173.266-.173.266-.324.208-.15-.046-.07.174.07.325.139.15.37.116.37.116s.14.29-.023.36c-.162.069.023.138.244.208.22.07.15.266.486.22.325-.046.43-.012.43-.012s.208 1.02.162 1.38c-.047.36-.14.753-.534 1.31-.405.556-.753 1.959-.753 1.959s-.301.73-.209 1.646c.105.915-.011.81.035 1.808.047.997.464 2.179.429 2.422-.035.244.197 1.832.255 2.249.058.417.023.904.197 1.264.093.185.255.44.429.741-.012.035-.035.07-.046.116-.035-.058-.081-.127-.116-.185-.105-.174-.29-.394-.348-.522a2.273 2.273 0 01-.209-.846 7.752 7.752 0 00-.07-.51l.012-.232c-.127-.858-.266-1.762-.231-1.959.011-.08-.07-.382-.14-.672-.115-.487-.023 3.489-.046 2.886-.011-.36-1.16-.66-1.148-.823-1.727 1.009-2.26-2.654-3.175-1.924-3.849-4.787-10.004-7.616-17.213-7.616-10.236 0-15.37 5.97-17.712 11.348l10.177 4.73c.997-3.037 4.034-5.669 8.01-5.669 3.86 0 6.433 1.75 7.777 4.382H12.867v10.258h13.33c-1.286 2.921-3.976 4.857-8.01 4.857-3.975 0-7.012-2.631-8.009-5.668L0 56.606C2.283 61.81 7.488 68 17.712 68c11.428 0 20.25-7.163 21.339-17.897a20.856 20.856 0 01-.116-2.272c0-.15.023-.29.023-.44l.197.197c0 .08.012.162.012.243 0 .777-.046 1.53-.116 2.272C40.141 60.837 48.961 68 60.391 68c10.235 0 15.44-6.201 17.711-11.394l-10.177-4.683c-.985 3.025-4 5.645-7.488 5.668-.174-.545-.36-1.101-.51-1.6-.371-1.159-1.345-3.245-1.345-3.245s.023-.533-.116-1.009c-.139-.486-.255-.66-.185-1.02.07-.37 0-.544-.081-.915-.07-.371-.15-.43-.43-.73-.277-.302-.857-1.24-1.46-2.133-.602-.893-1.715-2.956-2.84-4.069a42.432 42.432 0 01-.81-.834c.069-.105.162-.21.231-.313.267.22.614.51 1.02.904.232-.116.081-.047.313-.163 2.585-1.356 3.825-4.033 4.764-5.065.522-.568.962-.823 1.472-1.066.765.15 1.298-.255 1.994-.418.834-.185 1.275.047 2.585.325 1.31.267 3.616.185 4.578.093.962-.093 2.168.533 2.701.869.533.336 1.472 1.518 2.794 3.245 1.32 1.728 1.251 1.554 1.657 1.716.394.174.8.672.498.904-.3.232-.255 1.124.07 1.298.325.186-.267.22.417.58a5.25 5.25 0 002.33.614c.811.024.556-.208.232-.649z" fill="#DF1E42"/></svg><svg fill="none" viewBox="0 0 21 13" id="mail" xmlns="http://www.w3.org/2000/svg"><path d="M7 .749l6.647 6.172a.5.5 0 00.694-.013L20.5.748M7 .749h13.5M7 .749v4.5m13.5-4.5v10.5a.5.5 0 01-.5.5H7.5a.5.5 0 01-.5-.5v-2m2-2H5m0-2H1m6-2H3" stroke="#DF1E42" stroke-linecap="round" stroke-linejoin="round"/></svg><svg fill="none" viewBox="0 0 21 13" id="mail-disabled" xmlns="http://www.w3.org/2000/svg"><path d="M6.5.749l6.647 6.172a.5.5 0 00.694-.013L20 .748m-13.5 0H20m-13.5 0v4.5M20 .748v10.5a.5.5 0 01-.5.5H7a.5.5 0 01-.5-.5v-2m2-2h-4m0-2h-4m6-2h-4" stroke="#222A30" stroke-opacity=".5" stroke-linecap="round" stroke-linejoin="round"/></svg><svg fill="none" viewBox="0 0 21 13" id="mail-hover" xmlns="http://www.w3.org/2000/svg"><path d="M6.5.749l6.647 6.172a.5.5 0 00.694-.013L20 .748m-13.5 0H20m-13.5 0v4.5M20 .748v10.5a.5.5 0 01-.5.5H7a.5.5 0 01-.5-.5v-2m2-2h-4m0-2h-4m6-2h-4" stroke="#fff" stroke-linecap="round" stroke-linejoin="round"/></svg><svg fill="none" viewBox="0 0 21 13" id="mail-press" xmlns="http://www.w3.org/2000/svg"><path d="M7 .749l6.647 6.172a.5.5 0 00.694-.013L20.5.748M7 .749h13.5M7 .749v4.5m13.5-4.5v10.5a.5.5 0 01-.5.5H7.5a.5.5 0 01-.5-.5v-2m2-2H5m0-2H1m6-2H3" stroke="#fff" stroke-opacity=".75" stroke-linecap="round" stroke-linejoin="round"/></svg><svg fill="none" viewBox="0 0 21 13" id="mail-white" xmlns="http://www.w3.org/2000/svg"><path d="M7 .749l6.647 6.172a.5.5 0 00.694-.013L20.5.748M7 .749h13.5M7 .749v4.5m13.5-4.5v10.5a.5.5 0 01-.5.5H7.5a.5.5 0 01-.5-.5v-2m2-2H5m0-2H1m6-2H3" stroke="#FFF" stroke-linecap="round" stroke-linejoin="round"/></svg><svg fill="none" viewBox="0 0 64 65" id="metres" xmlns="http://www.w3.org/2000/svg"><path stroke="#004391" stroke-linecap="round" stroke-linejoin="round" d="M7.5 18h7v15h-7zm14 0h7v15h-7zm0 15h7v15h-7zm14 0h7v15h-7zm14-15h7v15h-7zm0 15h7v15h-7zM7.5 3h7v15h-7zm0 30h7v15h-7zm7-8h7v15h-7zm7-22h7v15h-7zm0 45h7v15h-7zm14-30h7v15h-7zm0-15h7v15h-7zm0 45h7v15h-7zm7-23h7v15h-7zm7-22h7v15h-7zm0 45h7v15h-7zm-42 0h7v15h-7zm7-38h7v15h-7zm0 30h7v15h-7zm14-29.5h7v15h-7z"/><path stroke="#004391" stroke-linecap="round" stroke-linejoin="round" d="M28.5 25h7v15h-7zm0 15h7v15h-7zm14-29.5h7v15h-7zm0 29.5h7v15h-7z"/></svg><svg fill="none" viewBox="0 0 64 65" id="peoples" xmlns="http://www.w3.org/2000/svg"><path d="M45 49.5h17v-7.599a8 8 0 00-5.126-7.465l-3.374-1.3-2.882-1.11a2.303 2.303 0 00-2.424.49l-.057.056a4.523 4.523 0 01-6.274 0v0a2.262 2.262 0 00-2.516-.425L37.5 33m17.958 15.813v-7.521M37 17.5v3.667c0 4.05 3.358 7.333 7.5 7.333 4.142 0 7.5-3.283 7.5-7.333V17.5M41 28c-.444 1.185 0 3.5-3 4.5M48.5 28c.444 1.185.5 3.5 3.5 4.5m-26.5 0l-.64-.256a3 3 0 00-3.26.688L19 35.59l-2.648-2.708a3 3 0 00-3.17-.722l-2.682.975-3.375 1.3A8 8 0 002 41.9v7.6h16m-9.458-.687v-7.521M11.5 21.167c0 4.05 4.858 7.333 7 7.333 2.142 0 7-3.283 7-7.333V17.5" stroke="#004391" stroke-linecap="round"/><path d="M47 12.5c-4 4-9.333 5-11 5 0-4.97 1.358-11 8.5-11 2.459 0 4.232.714 5.5 1.854M47 12.5c.5 1.667 3.2 5 6 5 0-3.26-.584-6.974-3-9.146M47 12.5c.667-.597 2.2-2.262 3-4.146M8 34c2.4-.8 2.333-11.333 2-16.5 0-4.97 1.358-11 8.5-11 7.142 0 8.5 6.03 8.5 11 0 2 0 5.5 1.5 9m-17-5.5c5.2-.4 8.5-5.833 9.5-8.5.5 1.667 2.1 5 4.5 5m21.682 6.182a3.664 3.664 0 01-5.182 0m-8.409 17.614a2.54 2.54 0 01-3.591 0m-8.818-17.614a3.664 3.664 0 01-5.182 0" stroke="#004391" stroke-linecap="round" stroke-linejoin="round"/><path d="M16 27.5c-.167 1.5-.8 4.5-2 4.5m7-4.5c.167 1.5.8 4.5 2 4.5" stroke="#004391"/><path d="M44.86 60.853v-4.465a8 8 0 00-5.125-7.465l-1.34-.516-2.192-.844a1.751 1.751 0 00-1.844.372 3.503 3.503 0 01-4.858 0 1.751 1.751 0 00-1.844-.372l-2.192.844-1.34.516A8 8 0 0019 56.388v4.465h25.86zm-20.884-.523v-5.72m15.909 5.72v-5.72" stroke="#004391" stroke-linecap="round"/><path d="M25.846 36.514v2.788c0 3.081 2.553 5.578 5.704 5.578 3.15 0 5.704-2.497 5.704-5.578v-2.788M24.861 36.5c0-3.615 1.038-8 6.5-8 5.461 0 6.5 4.385 6.5 8-2.142 0-4.206-2.424-4.589-3.636-3.058 2.909-7.137 3.636-8.411 3.636z" stroke="#004391" stroke-linecap="round" stroke-linejoin="round"/><path d="M28.888 44.5c-.338.901 0 2.662-2.282 3.423m7.986-3.423c.338.901.38 2.662 2.662 3.423" stroke="#004391" stroke-linecap="round"/></svg><svg fill="none" viewBox="0 0 15 16" id="phone" xmlns="http://www.w3.org/2000/svg"><path fill-rule="evenodd" clip-rule="evenodd" d="M4.865 5.835l.823-.173a.716.716 0 00.556-.749l-.313-2.896c-.01-.24-.163-.448-.404-.575-.802-.33-1.53-.27-2.2.11-.55.308-.907.799-1.024 1.416C1.513 7.329 5.23 13.4 9.431 14.695c.593.213 1.193.121 1.751-.219.646-.42 1.034-1.04 1.085-1.944.023-.233-.09-.464-.324-.623L9.51 10.331c-.29-.207-.68-.132-.92.15l-.492.627C6.314 9.926 5.133 7.94 4.865 5.835z" fill="#DF1E42"/></svg><svg fill="none" viewBox="0 0 15 16" id="phone-hover" xmlns="http://www.w3.org/2000/svg"><path fill-rule="evenodd" clip-rule="evenodd" d="M4.865 5.835l.823-.173a.716.716 0 00.556-.749l-.313-2.896c-.01-.24-.163-.448-.404-.575-.802-.33-1.53-.27-2.2.11-.55.308-.907.799-1.024 1.416C1.513 7.329 5.23 13.4 9.431 14.695c.593.213 1.193.121 1.751-.219.646-.42 1.034-1.04 1.085-1.944.023-.233-.09-.464-.324-.623L9.51 10.331c-.29-.207-.68-.132-.92.15l-.492.627C6.314 9.926 5.133 7.94 4.865 5.835z" fill="#004391"/></svg><svg fill="none" viewBox="0 0 12 7" id="sort" xmlns="http://www.w3.org/2000/svg"><path d="M0 .5h12m-12 3h8m-8 3h4" stroke="#004391"/></svg><svg fill="none" viewBox="0 0 12 7" id="sort-hover" xmlns="http://www.w3.org/2000/svg"><path d="M0 .5h12m-12 3h8m-8 3h4" stroke="#DF1E42"/></svg><svg viewBox="0 0 96 16" id="stars" xmlns="http://www.w3.org/2000/svg"><path d="M3.056 16L8 12.223V0L6.111 6.111H0L4.944 9.89 3.056 16zm9.888 0L8 12.223V0l1.889 6.111H16L11.056 9.89 12.944 16zm10.112 0L28 12.223V0l-1.889 6.111H20l4.944 3.778L23.056 16zm9.888 0L28 12.223V0l1.889 6.111H36L31.056 9.89 32.944 16zm10.112 0L48 12.223V0l-1.889 6.111H40l4.944 3.778L43.056 16zm9.888 0L48 12.223V0l1.889 6.111H56L51.056 9.89 52.944 16zm10.112 0L68 12.223V0l-1.888 6.111H60l4.944 3.778L63.056 16zm9.888 0L68 12.223V0l1.888 6.111H76L71.056 9.89 72.944 16z"/><path fill-rule="evenodd" clip-rule="evenodd" d="M88 12.223L83.056 16l1.888-6.111L80 6.11h6.112L88 0l1.888 6.111H96L91.056 9.89 92.944 16 88 12.223z"/></svg><svg fill="none" viewBox="0 0 18 18" id="zoom" xmlns="http://www.w3.org/2000/svg"><path d="M11.4 1H17v5.6m0 4.8V17h-5.6m-4.8 0H1v-5.6m0-4.8V1h5.6" stroke="#222A30"/></svg><svg fill="none" viewBox="0 0 10 10" id="zoom-bold" xmlns="http://www.w3.org/2000/svg"><path d="M6.2 1H9v2.8m0 2.4V9H6.2M3.8 9H1V6.2m0-2.4V1h2.8" stroke="#222A30"/></svg><svg fill="none" viewBox="0 0 10 10" id="zoom-bold-hover" xmlns="http://www.w3.org/2000/svg"><path d="M6.2 1H9v2.8m0 2.4V9H6.2M3.8 9H1V6.2m0-2.4V1h2.8" stroke="#fff"/></svg><svg fill="none" viewBox="0 0 18 18" id="zoom-hover" xmlns="http://www.w3.org/2000/svg"><path d="M11.4 1H17v5.6m0 4.8V17h-5.6m-4.8 0H1v-5.6m0-4.8V1h5.6" stroke="#fff"/></svg></svg>