<svg width="64" height="65" viewBox="0 0 64 65" fill="none" xmlns="http://www.w3.org/2000/svg">
<path d="M56 64V53.7661C56 50.3226 53.7966 47.2655 50.5298 46.1766L44 44L39.5854 42.5285C38.5998 42.1999 37.5143 42.4047 36.7162 43.0699L35.8411 43.7991C33.616 45.6533 30.384 45.6533 28.1589 43.7991L27.2838 43.0699C26.4857 42.4047 25.4002 42.1999 24.4146 42.5285L20 44L13.4702 46.1766C10.2034 47.2655 8 50.3226 8 53.7661V64H56Z" stroke="#004391" stroke-linecap="round"/>
<path d="M15 63.5V55C15 54.4477 15.4477 54 16 54H17.5C18.0523 54 18.5 53.5523 18.5 53V44.5" stroke="#004391" stroke-linecap="round"/>
<path d="M49 63.5V55C49 54.4477 48.5523 54 48 54H46.5C45.9477 54 45.5 53.5523 45.5 53V44.5" stroke="#004391" stroke-linecap="round"/>
<path d="M22.5 43.5V52.5C22.5 53.0523 22.9477 53.5 23.5 53.5H32.5" stroke="#004391" stroke-linecap="round"/>
<path d="M41.5 43.5V52.5C41.5 53.0523 41.0523 53.5 40.5 53.5H31.5" stroke="#004391" stroke-linecap="round"/>
<path d="M22 24V29C22 34.5228 26.4772 39 32 39C37.5228 39 42 34.5228 42 29V24" stroke="#004391" stroke-linecap="round"/>
<path d="M29 20H20C18.8954 20 18 20.8954 18 22V22C18 23.1046 18.8954 24 20 24H44C45.1046 24 46 23.1046 46 22V22C46 20.8954 45.1046 20 44 20H42" stroke="#004391" stroke-linecap="round"/>
<path d="M44 19.9999C44 14.4084 40.1757 9.71006 35 8.37793M20 19.9999C20 14.4084 23.8243 9.71006 29 8.37793" stroke="#004391" stroke-linecap="round"/>
<path d="M27.5 38C26.8333 39.3333 27.5 41.5 24.5 42.5" stroke="#004391" stroke-linecap="round"/>
<path d="M36.5 38C37.1667 39.3333 36.5 41.5 39.5 42.5" stroke="#004391" stroke-linecap="round"/>
<path d="M36 13L34.1894 5.75746C34.0781 5.3123 33.6781 5 33.2192 5H32H30.7808C30.3219 5 29.9219 5.3123 29.8106 5.75746L28 13" stroke="#004391" stroke-linecap="round"/>
</svg>
