<svg width="24" height="25" viewBox="0 0 24 25" fill="none" xmlns="http://www.w3.org/2000/svg">
<path d="M6 20.4956H5.5C5.5 20.7717 5.72386 20.9956 6 20.9956V20.4956ZM6 4.99561V4.49561C5.72386 4.49561 5.5 4.71946 5.5 4.99561H6ZM18.5 20.4956V20.9956C18.7761 20.9956 19 20.7717 19 20.4956H18.5ZM18.5 8.99561H19C19 8.863 18.9473 8.73582 18.8536 8.64205L18.5 8.99561ZM14.5 4.99561L14.8536 4.64205C14.7106 4.49905 14.4955 4.45628 14.3087 4.53367C14.1218 4.61106 14 4.79337 14 4.99561H14.5ZM12.25 5.49561C12.5261 5.49561 12.75 5.27175 12.75 4.99561C12.75 4.71946 12.5261 4.49561 12.25 4.49561V5.49561ZM14.5 8.99561H14C14 9.27175 14.2239 9.49561 14.5 9.49561V8.99561ZM6.5 20.4956V4.99561H5.5V20.4956H6.5ZM6 20.9956H18.5V19.9956H6V20.9956ZM19 20.4956V8.99561H18V20.4956H19ZM18.8536 8.64205L14.8536 4.64205L14.1464 5.34916L18.1464 9.34916L18.8536 8.64205ZM12.25 4.49561H6V5.49561H12.25V4.49561ZM14 4.99561V8.99561H15V4.99561H14ZM14.5 9.49561H16.5V8.49561H14.5V9.49561ZM16.5 9.49561H18.5V8.49561H16.5V9.49561Z" fill="#004391"/>
<path d="M9.5 13.9956H15.5M12.5 10.9956V16.9956" stroke="#DF1E42" stroke-linecap="round"/>
</svg>
