<svg width="64" height="65" viewBox="0 0 64 65" fill="none" xmlns="http://www.w3.org/2000/svg">
<rect x="12.5" y="7" width="37" height="3" stroke="#004391" stroke-linecap="round" stroke-linejoin="round"/>
<rect x="17.5" y="5" width="27" height="2" stroke="#004391" stroke-linecap="round" stroke-linejoin="round"/>
<rect x="20.5" y="16" width="3" height="5" stroke="#004391" stroke-linecap="round" stroke-linejoin="round"/>
<rect x="20.5" y="24" width="3" height="5" stroke="#004391" stroke-linecap="round" stroke-linejoin="round"/>
<rect x="20.5" y="32" width="3" height="5" stroke="#004391" stroke-linecap="round" stroke-linejoin="round"/>
<rect x="20.5" y="40" width="3" height="5" stroke="#004391" stroke-linecap="round" stroke-linejoin="round"/>
<rect x="20.5" y="48" width="3" height="5" stroke="#004391" stroke-linecap="round" stroke-linejoin="round"/>
<rect x="26.5" y="16" width="3" height="5" stroke="#004391" stroke-linecap="round" stroke-linejoin="round"/>
<rect x="26.5" y="24" width="3" height="5" stroke="#004391" stroke-linecap="round" stroke-linejoin="round"/>
<rect x="26.5" y="32" width="3" height="5" stroke="#004391" stroke-linecap="round" stroke-linejoin="round"/>
<rect x="26.5" y="40" width="3" height="5" stroke="#004391" stroke-linecap="round" stroke-linejoin="round"/>
<rect x="26.5" y="48" width="3" height="5" stroke="#004391" stroke-linecap="round" stroke-linejoin="round"/>
<rect x="32.5" y="16" width="3" height="5" stroke="#004391" stroke-linecap="round" stroke-linejoin="round"/>
<rect x="32.5" y="24" width="3" height="5" stroke="#004391" stroke-linecap="round" stroke-linejoin="round"/>
<rect x="32.5" y="32" width="3" height="5" stroke="#004391" stroke-linecap="round" stroke-linejoin="round"/>
<rect x="32.5" y="40" width="3" height="5" stroke="#004391" stroke-linecap="round" stroke-linejoin="round"/>
<rect x="32.5" y="48" width="3" height="5" stroke="#004391" stroke-linecap="round" stroke-linejoin="round"/>
<rect x="38.5" y="16" width="3" height="5" stroke="#004391" stroke-linecap="round" stroke-linejoin="round"/>
<rect x="38.5" y="24" width="3" height="5" stroke="#004391" stroke-linecap="round" stroke-linejoin="round"/>
<rect x="38.5" y="32" width="3" height="5" stroke="#004391" stroke-linecap="round" stroke-linejoin="round"/>
<rect x="38.5" y="40" width="3" height="5" stroke="#004391" stroke-linecap="round" stroke-linejoin="round"/>
<rect x="38.5" y="48" width="3" height="5" stroke="#004391" stroke-linecap="round" stroke-linejoin="round"/>
<circle cx="56.5" cy="46" r="5" stroke="#004391" stroke-linecap="round" stroke-linejoin="round"/>
<path d="M56.5 51V60" stroke="#004391" stroke-linecap="round" stroke-linejoin="round"/>
<path d="M59.6816 52.5L56.5 55.5" stroke="#004391" stroke-linecap="round" stroke-linejoin="round"/>
<rect x="6.5" y="31" width="9" height="29" stroke="#004391" stroke-linecap="round" stroke-linejoin="round"/>
<rect x="3.5" y="28" width="12" height="3" stroke="#004391" stroke-linecap="round" stroke-linejoin="round"/>
<rect x="9.5" y="35" width="3" height="5" stroke="#004391" stroke-linecap="round" stroke-linejoin="round"/>
<rect x="9.5" y="43" width="3" height="5" stroke="#004391" stroke-linecap="round" stroke-linejoin="round"/>
<rect x="9.5" y="51" width="3" height="5" stroke="#004391" stroke-linecap="round" stroke-linejoin="round"/>
<rect x="15.5" y="10" width="31" height="50" stroke="#004391" stroke-linecap="round" stroke-linejoin="round"/>
<rect x="4.25" y="59.75" width="56.5" height="0.5" stroke="#004391" stroke-width="0.5" stroke-linecap="round" stroke-linejoin="round"/>
</svg>
