<svg width="178" height="80" viewBox="0 0 178 80" fill="none" xmlns="http://www.w3.org/2000/svg">
<path d="M86.2509 40.181L88.3025 39.2073C88.6039 39.9491 89.3921 40.5519 90.3542 40.5519C91.5829 40.5519 92.3943 39.8564 92.7072 38.8364H88.8937V36.75H92.6609C92.3247 35.8227 91.5249 35.1735 90.3542 35.1735C89.3805 35.1735 88.6039 35.7879 88.3025 36.5181L86.2509 35.5445C86.8536 34.3158 88.0591 33.0523 90.2962 33.0523C93.1361 33.0523 95.3153 34.9881 95.3153 37.8511C95.3153 40.7026 93.1361 42.6499 90.2962 42.6499C88.0591 42.6731 86.842 41.3749 86.2509 40.181Z" fill="#231F20"/>
<path d="M98.2942 42.4992V35.3126H95.6978V33.2262H103.278V35.3126H100.694V42.4992H98.2942Z" fill="#231F20"/>
<path d="M109.862 42.4992L109.399 41.1662H105.747L105.284 42.4992H102.571L106.06 33.2262H109.063L112.563 42.4992H109.862ZM107.567 35.5908L106.385 39.0798H108.75L107.567 35.5908Z" fill="#231F20"/>
<path d="M112.749 40.5519C113.606 40.5519 114.163 40.0419 114.429 37.9207L114.986 33.2262H121.894V42.4992H119.506V35.3126H117.142L116.805 38.1061C116.365 41.8617 114.777 42.6615 112.749 42.6615V40.5519Z" fill="#231F20"/>
<path d="M123.1 37.8743C123.1 35.0576 125.221 33.0755 128.061 33.0755C130.9 33.0755 133.01 35.046 133.01 37.8743C133.01 40.7026 130.9 42.6731 128.061 42.6731C125.221 42.6731 123.1 40.691 123.1 37.8743ZM130.576 37.8743C130.576 36.3558 129.591 35.1967 128.061 35.1967C126.519 35.1967 125.534 36.3674 125.534 37.8743C125.534 39.3812 126.519 40.5635 128.061 40.5635C129.591 40.5519 130.576 39.3696 130.576 37.8743Z" fill="#231F20"/>
<path d="M140.463 42.4992V38.7784H136.615V42.4992H134.227V33.2262H136.615V36.692H140.463V33.2262H142.851V42.4992H140.463Z" fill="#231F20"/>
<path d="M86.4133 52.2474C86.4133 49.3844 88.5809 47.4486 91.4323 47.4486C93.6695 47.4486 94.8633 48.7121 95.4777 49.9407L93.426 50.9144C93.1247 50.1725 92.3249 49.5698 91.4439 49.5698C89.9255 49.5698 88.8591 50.7405 88.8591 52.2474C88.8591 53.7659 89.9255 54.9366 91.4439 54.9366C92.3365 54.9366 93.1247 54.3222 93.426 53.592L95.4777 54.5657C94.8749 55.7596 93.6695 57.0578 91.4323 57.0578C88.5809 57.0462 86.4133 55.0989 86.4133 52.2474Z" fill="#231F20"/>
<path d="M96.5093 56.8723V47.5993H103.302V49.6857H98.8971V51.1346H103.209V53.2211H98.8971V54.7975H103.302V56.8839H96.5093V56.8723Z" fill="#231F20"/>
<path d="M104.704 56.8723V47.5993H109.352C111.439 47.5993 112.575 49.0018 112.575 50.6826C112.575 52.3517 111.439 53.7543 109.352 53.7543H107.092V56.8723H104.704ZM110.141 50.6826C110.141 50.0451 109.665 49.6857 109.028 49.6857H107.092V51.6678H109.028C109.665 51.6794 110.141 51.3085 110.141 50.6826Z" fill="#231F20"/>
<path d="M113.653 56.8723V47.5993H118.904C120.735 47.5993 121.616 48.7932 121.616 49.9639C121.616 51.123 120.909 51.8997 120.028 52.0851C121.013 52.2358 121.79 53.1863 121.79 54.357C121.79 55.7016 120.886 56.8723 119.066 56.8723H113.653ZM119.182 50.3812C119.182 49.9407 118.846 49.6162 118.359 49.6162H116.041V51.1578H118.359C118.846 51.1578 119.182 50.8449 119.182 50.3812ZM119.367 54.0209C119.367 53.5572 119.031 53.1863 118.452 53.1863H116.041V54.8554H118.452C119.02 54.8554 119.367 54.5193 119.367 54.0209Z" fill="#231F20"/>
<path d="M123.111 56.8723V47.5993H125.499V53.0588L129.255 47.5993H131.724V56.8723H129.324V51.1462L125.418 56.8723H123.111Z" fill="#231F20"/>
<path d="M132.929 52.2474C132.929 49.3844 135.097 47.4486 137.948 47.4486C140.185 47.4486 141.379 48.7121 141.993 49.9407L139.93 50.9144C139.629 50.1725 138.829 49.5698 137.948 49.5698C136.43 49.5698 135.363 50.7405 135.363 52.2474C135.363 53.7659 136.43 54.9366 137.948 54.9366C138.841 54.9366 139.629 54.3222 139.93 53.592L141.993 54.5657C141.391 55.7596 140.185 57.0578 137.948 57.0578C135.097 57.0462 132.929 55.0989 132.929 52.2474Z" fill="#231F20"/>
<path d="M86.0307 64.117L86.3437 63.4911C86.448 63.5722 86.5871 63.6417 86.7378 63.6417C86.9348 63.6417 87.0275 63.5722 87.1203 63.4099L86.0075 61.196H86.9116L87.5839 62.6449L88.2562 61.196H89.1603L87.9085 63.6765C87.7114 64.059 87.3985 64.3372 86.8305 64.3372C86.5175 64.3488 86.2162 64.2677 86.0307 64.117Z" fill="#231F20"/>
<path d="M91.4554 64.2909V61.8914H90.1688V64.2909H89.369V61.196H92.2436V64.2909H91.4554Z" fill="#231F20"/>
<path d="M92.8 64.2909V61.196H94.3532C95.0487 61.196 95.4312 61.6596 95.4312 62.2276C95.4312 62.784 95.0487 63.2476 94.3532 63.2476H93.5998V64.2909H92.8ZM94.6198 62.2276C94.6198 62.019 94.4575 61.8914 94.2489 61.8914H93.5998V62.5522H94.2489C94.4575 62.5638 94.6198 62.4362 94.6198 62.2276Z" fill="#231F20"/>
<path d="M97.5524 64.2909L97.4017 63.8504H96.1846L96.034 64.2909H95.1298L96.289 61.196H97.2858L98.4565 64.2909H97.5524ZM96.7874 61.9842L96.3933 63.1433H97.1815L96.7874 61.9842Z" fill="#231F20"/>
<path d="M98.6884 64.2909V61.196H100.439C101.053 61.196 101.343 61.5901 101.343 61.9842C101.343 62.3667 101.111 62.6333 100.81 62.6913C101.134 62.7376 101.401 63.0622 101.401 63.4447C101.401 63.8968 101.099 64.2793 100.497 64.2793H98.6884V64.2909ZM100.531 62.1349C100.531 61.9842 100.415 61.8799 100.253 61.8799H99.4766V62.3899H100.253C100.427 62.3899 100.531 62.2856 100.531 62.1349ZM100.589 63.3404C100.589 63.1897 100.473 63.0622 100.288 63.0622H99.4882V63.6186H100.288C100.473 63.6186 100.589 63.5142 100.589 63.3404Z" fill="#231F20"/>
<path d="M101.667 63.6417C101.957 63.6417 102.143 63.4679 102.224 62.7608L102.409 61.196H104.716V64.2909H103.916V61.8914H103.128L103.012 62.8188C102.861 64.0706 102.34 64.3372 101.656 64.3372V63.6417H101.667Z" fill="#231F20"/>
<path d="M105.145 64.2909L105.771 63.1549C105.481 63.0506 105.145 62.7608 105.145 62.2276C105.145 61.648 105.539 61.196 106.223 61.196H107.764V64.2909H106.965V63.2476H106.559L106.049 64.2909H105.145ZM106.988 62.5637V61.9031H106.362C106.153 61.9031 105.979 62.019 105.979 62.2276C105.979 62.4478 106.153 62.5637 106.362 62.5637H106.988Z" fill="#231F20"/>
<path d="M109.642 63.0506H109.132V64.2908H108.332V61.196H109.132V62.3551H109.654C109.828 61.6364 110.454 61.1496 111.265 61.1496C112.215 61.1496 112.922 61.8103 112.922 62.7492C112.922 63.6881 112.215 64.3488 111.265 64.3488C110.43 64.3488 109.781 63.8272 109.642 63.0506ZM112.111 62.7492C112.111 62.2392 111.775 61.8567 111.265 61.8567C110.755 61.8567 110.43 62.2508 110.43 62.7492C110.43 63.2476 110.755 63.6417 111.265 63.6417C111.775 63.6417 112.111 63.2476 112.111 62.7492Z" fill="#231F20"/>
<path d="M117.478 61.2076V63.607H117.756V64.8704H116.956V64.3024H113.317V61.2076H114.116V63.607H114.997V61.2076H115.797V63.607H116.678V61.2076H117.478Z" fill="#231F20"/>
<path d="M120.213 64.2909L120.063 63.8504H118.846L118.695 64.2909H117.791L118.95 61.196H119.947L121.117 64.2909H120.213ZM119.448 61.9842L119.054 63.1433H119.842L119.448 61.9842Z" fill="#231F20"/>
<path d="M121.21 64.2909L121.836 63.1549C121.546 63.0506 121.21 62.7608 121.21 62.2276C121.21 61.648 121.604 61.196 122.288 61.196H123.83V64.2909H123.03V63.2476H122.624L122.114 64.2909H121.21ZM123.053 62.5637V61.9031H122.427C122.219 61.9031 122.045 62.019 122.045 62.2276C122.045 62.4478 122.219 62.5637 122.427 62.5637H123.053Z" fill="#231F20"/>
<path d="M127.412 64.2909L126.6 63.1317L126.392 63.3867V64.2909H125.592V61.196H126.392V62.471L127.342 61.196H128.327L127.122 62.6449L128.385 64.2909H127.412Z" fill="#231F20"/>
<path d="M128.269 62.7492C128.269 61.8103 128.976 61.1496 129.927 61.1496C130.877 61.1496 131.573 61.8103 131.573 62.7492C131.573 63.6881 130.866 64.3488 129.927 64.3488C128.988 64.3488 128.269 63.6881 128.269 62.7492ZM130.761 62.7492C130.761 62.2392 130.437 61.8567 129.927 61.8567C129.417 61.8567 129.081 62.2508 129.081 62.7492C129.081 63.2476 129.405 63.6417 129.927 63.6417C130.425 63.6417 130.761 63.2476 130.761 62.7492Z" fill="#231F20"/>
<path d="M134.679 64.2909V62.274L133.903 64.2909H133.555L132.778 62.274V64.2909H131.979V61.196H133.091L133.74 62.8767L134.39 61.196H135.502V64.2909H134.679Z" fill="#231F20"/>
<path d="M138.122 64.2909V61.8914H136.835V64.2909H136.035V61.196H138.91V64.2909H138.122Z" fill="#231F20"/>
<path d="M141.576 64.2909L141.425 63.8504H140.208L140.058 64.2909H139.154L140.313 61.196H141.309L142.48 64.2909H141.576ZM140.811 61.9842L140.417 63.1433H141.205L140.811 61.9842Z" fill="#231F20"/>
<path d="M144.787 64.2909V63.0506H143.5V64.2909H142.7V61.196H143.5V62.3551H144.787V61.196H145.587V64.2909H144.787Z" fill="#231F20"/>
<path d="M146.143 64.2909V61.196H146.943V63.0158L148.195 61.196H149.018V64.2909H148.218V62.3783L146.92 64.2909H146.143Z" fill="#231F20"/>
<path d="M149.447 64.2909L150.073 63.1549C149.783 63.0506 149.447 62.7608 149.447 62.2276C149.447 61.648 149.841 61.196 150.525 61.196H152.066V64.2909H151.266V63.2476H150.861L150.351 64.2909H149.447ZM151.278 62.5637V61.9031H150.652C150.443 61.9031 150.27 62.019 150.27 62.2276C150.27 62.4478 150.443 62.5637 150.652 62.5637H151.278Z" fill="#231F20"/>
<path d="M74.5087 36.2747C74.358 36.3442 74.2189 36.4138 74.1262 36.4949C73.8944 36.2051 73.7321 35.9733 73.6626 35.8342C73.3612 35.243 72.6309 34.8837 72.3643 34.5476C72.0977 34.2114 71.6341 33.8289 70.9154 33.771C70.1968 33.7246 67.9017 33.3537 67.9017 33.3537L67.1135 33.0523C66.8817 32.9596 66.3369 32.8205 65.6993 32.6814C65.8848 32.5655 66.0819 32.4611 66.3021 32.3452C67.4612 31.7773 69.907 29.459 70.22 29.2735C70.5329 29.0765 71.3095 29.3083 71.8543 30.0618C72.4107 30.8036 73.8133 32.6698 73.8828 33.713C73.9524 34.7446 74.5203 34.8258 74.6826 34.9069C74.8449 34.9996 74.7985 35.4865 74.8797 35.811C74.9724 36.1356 74.8565 36.1124 74.5087 36.2747ZM51.3262 48.573C51.3262 48.573 53.0881 49.7901 53.7256 50.1031C54.3631 50.416 54.5485 50.5204 54.6529 50.8101C54.7688 51.0999 54.8847 51.3317 55.0354 51.5636C55.1861 51.807 55.2672 52.5836 55.3368 53.4529C55.3947 54.2064 55.8352 55.9219 56.2409 56.6985C53.5633 55.4698 51.7203 53.0357 51.1059 50.0451C51.1523 49.7669 51.1871 49.5235 51.1987 49.3496C51.2682 48.6773 51.3262 48.573 51.3262 48.573ZM60.576 19.1544C60.7499 18.8182 61.3179 18.4589 61.4106 18.6328C61.4222 18.6443 61.4338 18.6559 61.4454 18.6675L61.0513 19.4326L61.0165 19.4905L60.9817 19.5485L61.0513 19.6992C61.0049 19.7107 60.9585 19.6991 60.9122 19.676C60.6224 19.5021 60.4021 19.4905 60.576 19.1544ZM61.9438 16.9984C61.5149 16.5695 62.2799 16.1986 62.2799 16.1986C62.2799 16.1986 62.3263 16.2218 62.3958 16.2565C62.3958 16.2565 62.3958 16.2565 62.4074 16.2565C62.5465 16.3377 62.7784 16.4884 62.8479 16.697C62.79 16.6506 62.7436 16.6159 62.674 16.5695C62.7088 16.755 62.732 16.9404 62.7552 17.1375C62.5118 17.52 62.3379 17.3925 61.9438 16.9984ZM80.3159 44.9102C79.9914 44.4697 79.7016 43.6815 79.7016 43.6815C79.7016 43.6815 79.5741 43.0208 79.0409 42.4296C78.5077 41.8269 78.3802 41.4328 78.2759 40.888C78.16 40.3432 77.6268 39.9723 76.8849 39.4275C76.8038 39.3696 76.6995 39.2884 76.5836 39.1841V39.1725C76.572 38.5813 76.6068 37.9322 76.6183 37.8163C76.6415 37.7004 77.0704 37.3063 76.8849 37.0281C76.6995 36.7499 76.7458 36.8195 76.7111 36.0081C76.6763 35.1851 76.5836 34.8258 76.5488 34.2694C76.514 33.713 76.7922 33.5971 76.1895 32.9712C75.5867 32.3452 74.5551 30.8384 74.0683 30.3399C73.593 29.8415 73.0366 28.2767 72.7932 27.8594C72.5498 27.4421 71.7616 27.1755 71.3791 26.8162C70.9966 26.4569 70.672 26.3178 69.907 26.7119C69.142 27.1176 66.3021 28.4738 65.908 28.636C65.5719 28.7751 64.7952 28.8099 64.5982 28.8215C64.6214 28.7056 64.633 28.6244 64.633 28.6244L64.5982 28.4042C64.6561 27.9869 64.262 27.6276 64.32 26.9437C64.378 26.2598 63.9259 24.8689 63.2652 24.127C63.1145 23.9647 62.9986 23.8372 62.9174 23.7445C62.732 25.4021 62.4422 27.048 62.1176 28.6592C62.0945 28.7983 61.8742 28.7751 61.8974 28.6244C62.2336 26.9321 62.5349 25.205 62.7204 23.4663C62.6277 23.2809 62.6045 23.0722 62.5233 22.5506C62.4538 22.1681 62.1176 21.6117 61.7004 20.7424C61.596 20.9858 61.6772 21.1017 61.3758 21.2988C61.2251 21.3915 61.0976 21.5538 60.9817 21.6929C60.8078 21.8899 60.5876 22.1913 60.2862 22.3188C59.9269 22.4811 59.3937 22.8288 58.5823 23.6286C58.0143 24.185 56.3452 25.7614 55.5918 25.8657L55.1977 26.0975L54.6065 26.3873C54.282 26.4337 53.8183 26.596 53.5865 26.7119C53.4126 26.8046 53.1344 26.9553 52.8678 27.0364C52.2882 27.2219 51.7667 27.4421 50.99 27.8942C50.3641 28.2535 49.1586 28.8563 48.7181 28.949C48.7993 29.1576 48.6022 29.007 48.9963 29.5054C49.1586 29.714 49.2629 29.9574 49.3441 30.2008C49.2397 30.2472 49.1354 30.3052 49.0427 30.3631C48.9963 30.2008 48.95 30.0386 48.8572 29.9111C48.8109 29.7951 48.7413 29.6908 48.6718 29.5865C48.6602 29.5749 48.6486 29.5633 48.6486 29.5517C48.7181 29.6445 48.7877 29.7604 48.8341 29.8647C48.8341 29.8531 48.8225 29.8531 48.8225 29.8415C48.579 29.5633 48.3356 29.1924 48.1502 28.8794C48.3008 29.0881 48.4747 29.3315 48.6486 29.5517C48.6486 29.5517 48.6486 29.5401 48.637 29.5401C48.4168 29.2504 48.2545 29.0301 48.127 28.8331C48.1154 28.7867 48.1038 28.7403 48.1038 28.694L48.127 28.7287L48.1154 28.7056L48.1038 28.6824C48.0806 28.5317 48.069 28.3926 48.069 28.2883C48.5327 28.1956 49.9005 27.9058 50.48 27.5696C51.1871 27.1639 51.7898 26.8626 52.4273 26.6655C53.0649 26.4569 53.2619 26.1671 53.9226 26.1091C54.5833 26.0396 57.3652 24.0922 57.9564 23.5127C58.5475 22.9331 59.3705 22.1797 59.8458 21.971C60.321 21.7624 60.4717 21.3103 60.8426 21.0785C61.2135 20.8351 61.3179 20.5105 61.4338 20.2092C61.5613 19.9078 61.9554 19.3282 61.6424 19.3282C61.6076 19.3282 61.5729 19.3398 61.5497 19.3398L62.7784 17.6359C62.987 19.5601 62.929 21.519 62.7204 23.4663C62.7668 23.5475 62.8247 23.6402 62.9174 23.7445C63.1609 21.6117 63.2304 19.4789 62.9754 17.3693L63.045 17.2766C63.045 17.2766 63.0566 17.2534 63.0681 17.2186C63.1841 17.52 63.3579 17.5432 63.9607 17.6591C64.6561 17.7866 64.888 17.9025 64.9111 17.4968C64.9343 17.0795 63.8679 15.8856 63.8679 15.8856L64.2041 15.8393C64.6909 15.8856 65.1314 16.3493 65.6646 16.6854C66.1978 17.0216 66.2557 16.9056 66.731 16.5811C67.2062 16.2565 66.9396 15.8856 66.9396 15.8856C66.9396 15.8856 66.9976 15.7349 67.4844 15.2133C67.9713 14.7033 67.2874 14.344 66.4992 13.4746C65.7109 12.6053 65.7689 12.5242 65.2009 11.8519C64.6214 11.1796 64.0418 10.2175 63.6013 9.41768C63.1609 8.61789 63.2652 8.6063 62.8827 8.28174C62.5002 7.95719 62.2452 7.73695 62.2452 7.73695C62.2452 7.73695 62.222 7.55149 62.1061 6.97192C62.0133 6.48509 61.7583 6.64738 61.4106 6.346C61.5149 5.98667 61.6308 5.5462 61.6656 5.24483C61.7235 4.6189 61.2483 4.59572 61.2483 4.59572C61.2483 4.59572 61.3063 5.05937 61.086 5.46506C61.0281 5.55779 60.9585 5.6737 60.8774 5.77802C60.7499 5.69688 60.6224 5.72007 60.3558 5.73166C60.4369 5.48824 60.1471 5.32597 60.1239 4.8855C60.1008 4.32912 60.4485 4.41025 60.4021 4.00456C60.3906 3.9466 59.6139 4.44503 59.2778 5.2796C59.2198 5.43028 59.1735 5.58097 59.1387 5.73166C58.7794 5.75484 58.6635 5.77802 58.1534 5.61575C57.4116 5.38392 57.7014 5.90553 57.145 5.85916C56.577 5.82439 55.2672 6.38078 54.5485 6.55465C53.8299 6.72851 52.6592 7.78331 51.9405 8.51357C51.2219 9.24382 50.9437 9.39451 50.2714 9.97407C49.5991 10.5536 49.0543 11.7128 48.4052 12.2112C47.7676 12.7096 47.7908 12.8951 46.8404 13.3935C45.9015 13.8919 45.0669 13.8224 45.5885 13.8224C46.1101 13.8224 46.8751 13.6833 46.3883 13.9383C45.9015 14.1933 45.5537 14.3903 45.9826 14.2976C46.4231 14.2049 46.7824 14.1469 46.3419 14.7729C45.9015 15.3988 46.6085 15.3756 45.8783 15.9899C45.1364 16.6159 46.1565 15.8393 45.9826 16.5C45.8087 17.1607 45.2408 17.6475 45.2408 17.6475C45.2408 17.6475 45.7624 17.6475 46.2956 17.1723C46.8288 16.6854 46.7592 16.2102 47.049 15.8045C47.3272 15.3872 47.3851 15.7581 47.3272 16.4768C47.2692 17.1954 47.6517 17.4736 47.9299 18.1923C48.2081 18.8993 47.814 18.4009 48.1038 19.1775C48.3936 19.9658 48.2777 22.3304 48.3008 23.6054C48.3008 23.8488 48.3124 23.8488 48.1965 24.2661H48.3936C48.7993 24.2661 49.0195 24.2893 49.1122 24.3009C49.3325 24.2082 50.7002 23.9763 51.1639 23.8025C51.3609 23.7329 51.5 23.7097 51.6391 23.6866C51.8478 23.6518 51.9753 23.6402 52.1955 23.42C52.5896 23.0143 54.5833 22.1681 55.7772 21.7624C56.9595 21.3683 58.536 20.3367 58.7562 20.186L58.8257 20.1396C58.9764 20.0237 58.9764 20.0237 58.9417 19.7455C58.8837 19.305 58.9648 18.795 59.1155 18.5516C59.1967 18.4125 59.2662 18.3777 59.3358 18.343C59.3821 18.3314 59.4169 18.3198 59.4864 18.2271C59.6023 18.0648 59.7183 18.0416 59.7994 18.03C59.8573 18.0184 59.8689 18.0184 59.9037 17.972C59.9617 17.8793 60.0544 17.833 60.1356 17.7866C59.8342 17.1954 59.8689 17.0332 59.7183 16.7781C59.2198 15.874 58.8605 14.8424 59.046 14.5526C59.2314 14.2628 59.7067 14.4947 60.1587 14.7729C60.4717 14.9699 61.0744 15.4799 61.6076 15.8508L61.8626 16.3609C61.8626 16.3609 61.6308 16.8825 61.7467 17.1607C61.8627 17.4504 62.0365 17.6127 62.0365 17.6127L61.5381 18.5748C61.3758 18.4473 61.1208 18.2734 60.9469 18.3314C60.6687 18.4125 60.3674 18.4589 60.2515 18.6443C60.1355 18.8298 60.0196 18.6791 59.8342 18.911C59.6487 19.1544 59.6023 18.9921 59.4748 19.2239C59.3357 19.4557 59.3126 19.7455 59.3589 20.1396C59.4169 20.5337 59.3589 20.5221 59.1271 20.696C58.8837 20.8699 56.9595 21.774 55.7772 22.1797C54.5949 22.5738 52.6128 23.4199 52.2303 23.8025C51.8478 24.185 51.6623 24.0227 51.1639 24.2082C50.6655 24.3936 48.9731 25.0775 48.9731 25.0775C48.9731 25.0775 47.9531 24.9268 47.1881 25.1007C46.4231 25.2746 44.8814 25.7962 44.4757 26.1787C44.0816 26.5728 43.9425 26.6539 43.9425 26.6539C43.9425 26.6539 43.7687 26.1091 43.8266 25.9584C43.8846 25.8077 44.2903 25.8425 44.6148 25.7498C44.9394 25.6571 44.9046 25.4021 44.8003 25.1818C44.696 24.9616 44.8698 24.7877 44.7539 24.8109C44.638 24.8225 44.4757 24.7066 44.4757 24.7066C44.4757 24.7066 44.4294 24.5443 44.638 24.5211C44.8466 24.4979 44.8582 24.5095 44.8467 24.3241V24.127C44.8467 24.127 45.0669 23.9995 45.2755 23.93C45.4842 23.8604 45.4842 23.8604 45.2292 23.4084C44.9742 22.9679 44.7655 22.8288 44.8351 22.6086C44.9046 22.3883 45.0089 22.2724 44.9046 22.0986C44.8119 21.9247 44.7423 21.8088 44.7075 21.5074C44.6612 21.206 44.383 20.8815 44.383 20.8815C44.383 20.8815 45.0785 20.4062 44.5685 20.1396C44.0584 19.873 44.2439 20.2555 44.07 20.0121C43.8962 19.7687 43.9773 19.6412 43.6412 19.6876C43.3166 19.7339 42.8645 19.6296 42.4704 19.6528C42.0647 19.6876 41.9257 19.5369 41.3925 19.7571C40.8477 19.9773 40.4072 20.0585 40.1638 20.3251C39.9204 20.6033 39.5262 20.5337 39.4219 20.951C39.3176 21.3683 39.2712 21.5885 39.051 21.8783C38.8308 22.1681 38.6453 22.7477 38.9351 23.1533C39.2249 23.5706 39.364 23.5011 39.1785 23.7677C39.0047 24.0343 39.0047 24.0343 38.854 23.9763C38.7033 23.93 38.7844 24.1502 38.9235 24.3009C39.0626 24.4516 39.2944 24.4168 39.2944 24.4168C39.2944 24.4168 39.4335 24.7066 39.2713 24.7761C39.109 24.8457 39.2944 24.9152 39.5147 24.9848C39.7349 25.0543 39.6653 25.2514 40.0015 25.205C40.326 25.1586 40.4304 25.1934 40.4304 25.1934C40.4304 25.1934 40.639 26.2134 40.5927 26.5728C40.5463 26.9321 40.4536 27.3262 40.0595 27.8826C39.6538 28.439 39.306 29.8415 39.306 29.8415C39.306 29.8415 39.0046 30.5718 39.0974 31.4875C39.2017 32.4032 39.0858 32.2989 39.1321 33.2957C39.1785 34.2926 39.5958 35.4749 39.561 35.7183C39.5263 35.9617 39.7581 37.5497 39.816 37.967C39.874 38.3843 39.8392 38.8711 40.0131 39.2305C40.1058 39.4159 40.2681 39.6709 40.442 39.9723C40.4304 40.0071 40.4072 40.0418 40.3956 40.0882C40.3608 40.0302 40.3145 39.9607 40.2797 39.9027C40.1754 39.7289 39.9899 39.5086 39.9319 39.3811C39.8044 39.1145 39.7465 38.8479 39.7233 38.535C39.7117 38.4075 39.6769 38.1525 39.6538 38.025L39.6654 37.7931C39.5378 36.9354 39.3988 36.0313 39.4335 35.8342C39.4451 35.7531 39.364 35.4517 39.2944 35.1619C39.1785 34.6751 39.2712 38.6509 39.2481 38.0481C39.2365 37.6888 38.0889 37.3874 38.1005 37.2252C36.3734 38.2336 35.8402 34.5708 34.9245 35.301C31.0762 30.5138 24.9212 27.6855 17.7115 27.6855C7.47637 27.6855 2.34144 33.655 0 39.0334L10.1771 43.7626C11.174 40.7257 14.2109 38.0945 18.1867 38.0945C22.0466 38.0945 24.6199 39.8448 25.9645 42.476H12.8663V52.7343H26.1963C24.9097 55.6553 22.2205 57.591 18.1867 57.591C14.2109 57.591 11.174 54.9598 10.1771 51.9229L0 56.6058C2.28348 61.8103 7.48796 68 17.7115 68C29.1405 68 37.9614 60.8366 39.051 50.1031C38.9699 49.3612 38.9351 48.6078 38.9351 47.8312C38.9351 47.6805 38.9583 47.5414 38.9583 47.3907L39.1553 47.5878C39.1553 47.6689 39.1669 47.75 39.1669 47.8312C39.1669 48.6078 39.1206 49.3612 39.051 50.1031C40.1406 60.8366 48.9616 68 60.3906 68C70.6257 68 75.8301 61.7987 78.102 56.6058L67.9249 51.9229C66.9396 54.9482 63.9259 57.5679 60.4369 57.591C60.2631 57.0462 60.0776 56.4899 59.9269 55.9914C59.556 54.8323 58.5823 52.7459 58.5823 52.7459C58.5823 52.7459 58.6055 52.2127 58.4664 51.7374C58.3273 51.2506 58.2114 51.0767 58.2809 50.7174C58.3505 50.3465 58.2809 50.1726 58.1998 49.8017C58.1303 49.4308 58.0491 49.3728 57.7709 49.0714C57.4927 48.7701 56.9132 47.8312 56.3104 46.9387C55.7077 46.0461 54.5949 43.9829 53.4706 42.8701C53.1344 42.534 52.8794 42.2674 52.6592 42.0355C52.7287 41.9312 52.8215 41.8269 52.891 41.7226C53.1576 41.9428 53.5053 42.2326 53.911 42.6267C54.1428 42.5108 53.9922 42.5803 54.224 42.4644C56.8088 41.1082 58.0491 38.4307 58.988 37.399C59.5096 36.8311 59.9501 36.5761 60.4601 36.3326C61.2251 36.4833 61.7583 36.0776 62.4538 35.9154C63.2884 35.7299 63.7288 35.9617 65.0387 36.2399C66.3485 36.5065 68.6551 36.4254 69.6172 36.3326C70.5793 36.2399 71.7848 36.8658 72.318 37.202C72.8512 37.5381 73.7901 38.7204 75.1115 40.4475C76.4329 42.1746 76.3633 42.0008 76.769 42.1631C77.1631 42.3369 77.5688 42.8353 77.2675 43.0672C76.9661 43.299 77.0124 44.1915 77.337 44.3654C77.6616 44.5508 77.0704 44.5856 77.7543 44.945C78.4382 45.3043 79.2148 45.5361 80.0841 45.5593C80.8955 45.5825 80.6405 45.3506 80.3159 44.9102Z" fill="#DF1E42"/>
</svg>
