<svg width="64" height="65" viewBox="0 0 64 65" fill="none" xmlns="http://www.w3.org/2000/svg">
<rect x="7.5" y="18" width="7" height="15" stroke="#004391" stroke-linecap="round" stroke-linejoin="round"/>
<rect x="21.5" y="18" width="7" height="15" stroke="#004391" stroke-linecap="round" stroke-linejoin="round"/>
<rect x="21.5" y="33" width="7" height="15" stroke="#004391" stroke-linecap="round" stroke-linejoin="round"/>
<rect x="35.5" y="33" width="7" height="15" stroke="#004391" stroke-linecap="round" stroke-linejoin="round"/>
<rect x="49.5" y="18" width="7" height="15" stroke="#004391" stroke-linecap="round" stroke-linejoin="round"/>
<rect x="49.5" y="33" width="7" height="15" stroke="#004391" stroke-linecap="round" stroke-linejoin="round"/>
<rect x="7.5" y="3" width="7" height="15" stroke="#004391" stroke-linecap="round" stroke-linejoin="round"/>
<rect x="7.5" y="33" width="7" height="15" stroke="#004391" stroke-linecap="round" stroke-linejoin="round"/>
<rect x="14.5" y="25" width="7" height="15" stroke="#004391" stroke-linecap="round" stroke-linejoin="round"/>
<rect x="21.5" y="3" width="7" height="15" stroke="#004391" stroke-linecap="round" stroke-linejoin="round"/>
<rect x="21.5" y="48" width="7" height="15" stroke="#004391" stroke-linecap="round" stroke-linejoin="round"/>
<rect x="35.5" y="18" width="7" height="15" stroke="#004391" stroke-linecap="round" stroke-linejoin="round"/>
<rect x="35.5" y="3" width="7" height="15" stroke="#004391" stroke-linecap="round" stroke-linejoin="round"/>
<rect x="35.5" y="48" width="7" height="15" stroke="#004391" stroke-linecap="round" stroke-linejoin="round"/>
<rect x="42.5" y="25" width="7" height="15" stroke="#004391" stroke-linecap="round" stroke-linejoin="round"/>
<rect x="49.5" y="3" width="7" height="15" stroke="#004391" stroke-linecap="round" stroke-linejoin="round"/>
<rect x="49.5" y="48" width="7" height="15" stroke="#004391" stroke-linecap="round" stroke-linejoin="round"/>
<rect x="7.5" y="48" width="7" height="15" stroke="#004391" stroke-linecap="round" stroke-linejoin="round"/>
<rect x="14.5" y="10" width="7" height="15" stroke="#004391" stroke-linecap="round" stroke-linejoin="round"/>
<rect x="14.5" y="40" width="7" height="15" stroke="#004391" stroke-linecap="round" stroke-linejoin="round"/>
<rect x="28.5" y="10.5" width="7" height="15" stroke="#004391" stroke-linecap="round" stroke-linejoin="round"/>
<rect x="28.5" y="25" width="7" height="15" stroke="#004391" stroke-linecap="round" stroke-linejoin="round"/>
<rect x="28.5" y="40" width="7" height="15" stroke="#004391" stroke-linecap="round" stroke-linejoin="round"/>
<rect x="42.5" y="10.5" width="7" height="15" stroke="#004391" stroke-linecap="round" stroke-linejoin="round"/>
<rect x="42.5" y="40" width="7" height="15" stroke="#004391" stroke-linecap="round" stroke-linejoin="round"/>
</svg>
