<svg width="64" height="65" viewBox="0 0 64 65" fill="none" xmlns="http://www.w3.org/2000/svg">
<path d="M45 49.5H62V41.9014C62 38.5922 59.9626 35.6247 56.8745 34.4356L53.5 33.1364L50.6181 32.0268C49.7834 31.7054 48.8382 31.8964 48.1938 32.5167L48.1368 32.5715C46.3854 34.2574 43.6146 34.2574 41.8632 32.5715V32.5715C41.1919 31.9254 40.1931 31.757 39.3471 32.1475L37.5 33" stroke="#004391" stroke-linecap="round"/>
<path d="M55.4583 48.8128V41.292" stroke="#004391" stroke-linecap="round"/>
<path d="M37 17.5V21.1667C37 25.2168 40.3579 28.5 44.5 28.5C48.6421 28.5 52 25.2168 52 21.1667V17.5" stroke="#004391" stroke-linecap="round"/>
<path d="M41 28C40.5556 29.1852 41 31.5 38 32.5" stroke="#004391" stroke-linecap="round"/>
<path d="M48.5 28C48.9444 29.1852 49 31.5 52 32.5" stroke="#004391" stroke-linecap="round"/>
<path d="M25.5 32.5L24.8592 32.2437C23.7336 31.7934 22.4476 32.0649 21.6 32.9318L19 35.5909L16.3523 32.8831C15.5289 32.041 14.289 31.7586 13.1821 32.1611L10.5 33.1364L7.12549 34.4356C4.03736 35.6247 2 38.5922 2 41.9014V49.5H18" stroke="#004391" stroke-linecap="round"/>
<path d="M8.54175 48.8128V41.292" stroke="#004391" stroke-linecap="round"/>
<path d="M11.5 21.1667C11.5 25.2168 16.3579 28.5 18.5 28.5C20.6421 28.5 25.5 25.2168 25.5 21.1667V17.5" stroke="#004391" stroke-linecap="round"/>
<path d="M47 12.5C43 16.5 37.6667 17.5 36 17.5C36 12.5294 37.3579 6.5 44.5 6.5C46.9586 6.5 48.7317 7.21447 50 8.35428M47 12.5C47.5 14.1667 50.2 17.5 53 17.5C53 14.2405 52.4161 10.5256 50 8.35428M47 12.5C47.6667 11.9029 49.2 10.2377 50 8.35428" stroke="#004391" stroke-linecap="round" stroke-linejoin="round"/>
<path d="M8 34C10.4 33.2 10.3333 22.6667 10 17.5C10 12.5294 11.3579 6.5 18.5 6.5C25.6421 6.5 27 12.5294 27 17.5C27 19.5 27 23 28.5 26.5M11.5 21C16.7 20.6 20 15.1667 21 12.5C21.5 14.1667 23.1 17.5 25.5 17.5" stroke="#004391" stroke-linecap="round" stroke-linejoin="round"/>
<path d="M47.1821 23.6816C45.7511 25.1126 43.431 25.1126 42 23.6816" stroke="#004391" stroke-linecap="round" stroke-linejoin="round"/>
<path d="M33.5913 41.2959C32.5996 42.2876 30.9917 42.2876 30 41.2959" stroke="#004391" stroke-linecap="round" stroke-linejoin="round"/>
<path d="M21.1821 23.6816C19.7511 25.1126 17.431 25.1126 16 23.6816" stroke="#004391" stroke-linecap="round" stroke-linejoin="round"/>
<path d="M16 27.5C15.8333 29 15.2 32 14 32M21 27.5C21.1667 29 21.8 32 23 32" stroke="#004391"/>
<path d="M44.8605 60.8529V56.3883C44.8605 53.0791 42.8231 50.1115 39.735 48.9225L38.3953 48.4067L36.2034 47.5628C35.5685 47.3183 34.8496 47.4636 34.3594 47.9354C33.0031 49.241 30.8574 49.241 29.501 47.9354C29.0109 47.4636 28.2919 47.3183 27.6571 47.5628L25.4651 48.4067L24.1255 48.9225C21.0374 50.1115 19 53.0791 19 56.3883V60.8529H44.8605Z" stroke="#004391" stroke-linecap="round"/>
<path d="M23.9756 60.3307V54.6104" stroke="#004391" stroke-linecap="round"/>
<path d="M39.8848 60.3307V54.6104" stroke="#004391" stroke-linecap="round"/>
<path d="M25.8455 36.5137V39.3025C25.8455 42.3831 28.3995 44.8803 31.55 44.8803C34.7006 44.8803 37.2545 42.3831 37.2545 39.3025V36.5137M24.8606 36.5C24.8606 32.885 25.899 28.5 31.3606 28.5C36.8222 28.5 37.8606 32.885 37.8606 36.5C35.7194 36.5 33.6547 34.0758 33.2724 32.8636C30.2135 35.7727 26.1351 36.5 24.8606 36.5Z" stroke="#004391" stroke-linecap="round" stroke-linejoin="round"/>
<path d="M28.8878 44.5C28.5497 45.4015 28.8878 47.1621 26.606 47.9227" stroke="#004391" stroke-linecap="round"/>
<path d="M34.5923 44.5C34.9303 45.4015 34.9726 47.1621 37.2544 47.9227" stroke="#004391" stroke-linecap="round"/>
</svg>
