<svg width="15" height="16" viewBox="0 0 15 16" fill="none" xmlns="http://www.w3.org/2000/svg">
<path fill-rule="evenodd" clip-rule="evenodd" d="M4.86499 5.8349L5.68829 5.66164C6.04794 5.57934 6.26214 5.2577 6.24411 4.91347L5.931 2.01657C5.92159 1.77639 5.76832 1.56913 5.52748 1.4425C4.72523 1.11113 3.99731 1.17169 3.32728 1.5522C2.77687 1.8599 2.41962 2.35059 2.30319 2.96791C1.51247 7.32907 5.22949 13.4001 9.4307 14.6954C10.0242 14.9079 10.6239 14.8161 11.1821 14.4763C11.8279 14.0559 12.2164 13.4369 12.2671 12.5317C12.2897 12.2994 12.1763 12.0678 11.9433 11.9091L9.50913 10.3306C9.21981 10.1242 8.8281 10.1987 8.58966 10.4804L8.09715 11.1081C6.31353 9.92596 5.13343 7.9393 4.86499 5.8349Z" fill="#DF1E42"/>
</svg>
