<svg width="96" height="16" viewBox="0 0 96 16" xmlns="http://www.w3.org/2000/svg">
<path d="M3.05573 16L8 12.2229V0L6.11146 6.11146H0L4.94427 9.88854L3.05573 16Z"/>
<path d="M12.9443 16L8 12.2229V0L9.88854 6.11146H16L11.0557 9.88854L12.9443 16Z"/>
<path d="M23.0557 16L28 12.2229V0L26.1115 6.11146H20L24.9443 9.88854L23.0557 16Z"/>
<path d="M32.9443 16L28 12.2229V0L29.8885 6.11146H36L31.0557 9.88854L32.9443 16Z"/>
<path d="M43.0557 16L48 12.2229V0L46.1115 6.11146H40L44.9443 9.88854L43.0557 16Z"/>
<path d="M52.9443 16L48 12.2229V0L49.8885 6.11146H56L51.0557 9.88854L52.9443 16Z"/>
<path d="M63.0557 16L68 12.2229V0L66.1115 6.11146H60L64.9443 9.88854L63.0557 16Z"/>
<path d="M72.9443 16L68 12.2229V0L69.8885 6.11146H76L71.0557 9.88854L72.9443 16Z"/>
<path fill-rule="evenodd" clip-rule="evenodd" d="M88 12.2229L83.0557 16L84.9443 9.88854L80 6.11146H86.1115L88 0L89.8885 6.11146H96L91.0557 9.88854L92.9443 16L88 12.2229Z"/>
</svg>
